<svg xmlns="http://www.w3.org/2000/svg" viewBox="0 0 422.11 99.09"><defs><style>.cls-1{isolation:isolate;}.cls-2{opacity:0.35;mix-blend-mode:multiply;}.cls-3{fill:#231f20;}.cls-4{fill:#fff;}</style></defs><title>logo</title><g class="cls-1"><g id="Layer_1" data-name="Layer 1"><g class="cls-2"><path class="cls-3" d="M116,90.54c0,0.69,0,.69.77,0.69H119c2.1,0,1.55-1.61,2-1.61a0.33,0.33,0,0,1,.22.38c0,0.71,0,1.39,0,2s0,1,0,1.59a0.22,0.22,0,0,1-.22.26c-0.62,0,.06-1.77-1.63-1.77h-3c-0.42,0-.36.34-0.36,0.65v3.71c0,1.19-.16,1.67,1.53,1.67,4.66,0,5.34-2.08,5.6-2.08a0.23,0.23,0,0,1,.16.24,3.19,3.19,0,0,1-1,2,2,2,0,0,1-2,.69c-1.53,0-3.06-.12-4.6-0.08-0.81,0-1.65.08-2.46,0.08-0.18,0-.3,0-0.3-0.2s0.24-.2.89-0.52,0.56-.81.56-1.75V87.28c0-.91,0-1.87-1.09-2-0.16,0-.6-0.08-0.6-0.32s0.12-.24.7-0.24c3.81,0,4.86.08,5.71,0.08,0.4,0,2.26-.08,2.88-0.08,0.16,0,.2.2,0.2,0.44,0,2.24-.28,2.4-0.4,2.4-0.48,0-.16-1-0.48-1.43-0.52-.69-2.62-0.56-3.43-0.56-1.93,0-1.89-.08-1.89,1.27v3.75Z"/><path class="cls-3" d="M133.95,89.71a1.52,1.52,0,0,0,.52.69,2,2,0,0,0,.6-0.75l1.81-2.6a3.37,3.37,0,0,0,.66-1.31c0-.58-1.11-0.4-1.11-0.89,0-.16.14-0.18,0.26-0.18,0.5,0,.5.08,1.85,0.08a8,8,0,0,0,1.53-.08,0.18,0.18,0,0,1,.16.2c0,0.42-.83,0-2,1.61l-3.06,4.33a0.67,0.67,0,0,0-.16.38,1.38,1.38,0,0,0,.24.52l3.51,5.52c1,1.67,1.79.83,1.79,1.47,0,0.2-.2.22-0.36,0.22s-1-.08-1.83-0.08-1.51.08-1.79,0.08-0.26,0-.26-0.2c0-.42.85-0.34,0.85-0.87a1.75,1.75,0,0,0-.44-1l-2.52-4a0.29,0.29,0,0,0-.2-0.18,0.39,0.39,0,0,0-.28.22l-2.2,3.27a4.14,4.14,0,0,0-.87,1.63c0,0.73,1.27.44,1.27,0.93,0,0.14-.12.2-0.3,0.2-0.52,0-1.07-.08-2-0.08-0.56,0-1.15.08-1.71,0.08-0.18,0-.24-0.06-0.24-0.18,0-.46,1.19-0.28,1.85-1.23l3.71-5.32a1.1,1.1,0,0,0,.2-0.34,1.17,1.17,0,0,0-.2-0.38l-3.12-4.68c-1.49-2.22-2.46-1.35-2.46-1.89a0.23,0.23,0,0,1,.24-0.24c0.46,0,.46.08,2.22,0.08,0.62,0,1.27-.08,1.89-0.08a0.29,0.29,0,0,1,.34.26c0,0.28-.89.18-0.89,0.77a5.92,5.92,0,0,0,1,1.77Z"/><path class="cls-3" d="M152.69,84.49c3.79,0,4.84,1.55,5.42,1.55,0.16,0,.28-0.2.48-0.2s0.22,0.32.28,1.63c0,1.07.22,1.73-.12,1.73a1.07,1.07,0,0,1-.46-0.66c-1.25-2.16-2.68-3.47-5.28-3.47-3.93,0-5.83,2.62-5.83,6.37,0,3.51,2,7,5.89,7,3.16,0,5.14-2,5.44-2.94a0.34,0.34,0,0,1,.28-0.26,0.2,0.2,0,0,1,.18.22l-0.46,2c0,0.08-1.45,1.59-6,1.59a6.75,6.75,0,0,1-7.1-7A7.28,7.28,0,0,1,152.69,84.49Z"/><path class="cls-3" d="M167.14,90.54c0,0.69,0,.69.77,0.69h2.18c2.1,0,1.55-1.61,2-1.61a0.33,0.33,0,0,1,.22.38c0,0.71,0,1.39,0,2s0,1,0,1.59a0.22,0.22,0,0,1-.22.26c-0.62,0,.06-1.77-1.63-1.77h-3c-0.42,0-.36.34-0.36,0.65v3.71c0,1.19-.16,1.67,1.53,1.67,4.66,0,5.34-2.08,5.6-2.08s0.16,0.2.16,0.24a3.19,3.19,0,0,1-1,2,2,2,0,0,1-2,.69c-1.53,0-3.06-.12-4.6-0.08-0.81,0-1.65.08-2.46,0.08-0.18,0-.3,0-0.3-0.2s0.24-.2.89-0.52,0.56-.81.56-1.75V87.28c0-.91,0-1.87-1.09-2-0.16,0-.6-0.08-0.6-0.32s0.12-.24.71-0.24c3.81,0,4.86.08,5.71,0.08,0.4,0,2.26-.08,2.88-0.08,0.16,0,.2.2,0.2,0.44,0,2.24-.28,2.4-0.4,2.4-0.48,0-.16-1-0.48-1.43-0.52-.69-2.62-0.56-3.43-0.56-1.93,0-1.89-.08-1.89,1.27v3.75Z"/><path class="cls-3" d="M182.27,96.47c0,1.19-.16,1.67,1.53,1.67,4.66,0,5.34-2.08,5.6-2.08a0.23,0.23,0,0,1,.16.24,3.19,3.19,0,0,1-1,2,2,2,0,0,1-2,.69c-1.53,0-3.06-.12-4.6-0.08-0.81,0-1.65.08-2.46,0.08-0.18,0-.3,0-0.3-0.2s0.24-.2.89-0.52,0.56-.81.56-1.75V86.25c0-1-1.69-.91-1.69-1.31,0-.22.14-0.26,0.4-0.26,0.42,0,1,.08,2,0.08,1.15,0,1.63-.08,1.94-0.08s0.38,0,.38.28c0,0.46-1.47,0-1.47,1.71v9.8Z"/><path class="cls-3" d="M197.45,96.47c0,1.19-.16,1.67,1.53,1.67,4.66,0,5.34-2.08,5.6-2.08a0.23,0.23,0,0,1,.16.24,3.19,3.19,0,0,1-1,2,2,2,0,0,1-2,.69c-1.53,0-3.06-.12-4.6-0.08-0.81,0-1.65.08-2.46,0.08-0.18,0-.3,0-0.3-0.2s0.24-.2.89-0.52,0.56-.81.56-1.75V86.25c0-1-1.69-.91-1.69-1.31,0-.22.14-0.26,0.4-0.26,0.42,0,1,.08,2,0.08,1.15,0,1.63-.08,1.94-0.08s0.38,0,.38.28c0,0.46-1.47,0-1.47,1.71v9.8Z"/><path class="cls-3" d="M212.66,90.54c0,0.69,0,.69.77,0.69h2.18c2.1,0,1.55-1.61,2-1.61a0.33,0.33,0,0,1,.22.38c0,0.71,0,1.39,0,2s0,1,0,1.59a0.22,0.22,0,0,1-.22.26c-0.62,0,.06-1.77-1.63-1.77h-3c-0.42,0-.36.34-0.36,0.65v3.71c0,1.19-.16,1.67,1.53,1.67,4.66,0,5.34-2.08,5.6-2.08a0.23,0.23,0,0,1,.16.24,3.19,3.19,0,0,1-1,2,2,2,0,0,1-2,.69c-1.53,0-3.06-.12-4.6-0.08-0.81,0-1.65.08-2.46,0.08-0.18,0-.3,0-0.3-0.2s0.24-.2.89-0.52,0.56-.81.56-1.75V87.28c0-.91,0-1.87-1.09-2-0.16,0-.6-0.08-0.6-0.32s0.12-.24.71-0.24c3.81,0,4.86.08,5.71,0.08,0.4,0,2.26-.08,2.88-0.08,0.16,0,.2.2,0.2,0.44,0,2.24-.28,2.4-0.4,2.4-0.48,0-.16-1-0.48-1.43-0.52-.69-2.62-0.56-3.43-0.56-1.93,0-1.89-.08-1.89,1.27v3.75Z"/><path class="cls-3" d="M226.47,88.65c0-4.19-2.44-3-2.44-3.77a0.31,0.31,0,0,1,.3-0.2c0.32,0,.63.08,0.95,0.08s0.63-.08.93-0.08a1,1,0,0,1,.52.46l9.62,10.7a0.65,0.65,0,0,0,.24.22s0.06-.06.06-0.22V87.42c0-2.64-2.24-1.87-2.24-2.54a0.2,0.2,0,0,1,.22-0.2c0.6,0,1.19.08,1.83,0.08s1.55-.08,2-0.08a0.18,0.18,0,0,1,.2.18c0,0.52-1.19.16-1.19,1.63V98.16c0,0.58,0,.87-0.18.87a1.28,1.28,0,0,1-.77-0.56l-8.67-9.76a1.13,1.13,0,0,0-.42-0.38c-0.08,0-.14.06-0.14,0.46V97c0,1.81,1.77,1.11,1.77,1.65a0.22,0.22,0,0,1-.22.26c-0.48,0-1-.08-2-0.08-0.71,0-1.75.08-1.89,0.08s-0.26-.12-0.26-0.22c0-.71,1.77.18,1.77-2.64V88.65Z"/><path class="cls-3" d="M251.56,84.49c3.79,0,4.84,1.55,5.42,1.55,0.16,0,.28-0.2.48-0.2s0.22,0.32.28,1.63c0,1.07.22,1.73-.12,1.73a1.07,1.07,0,0,1-.46-0.66c-1.25-2.16-2.68-3.47-5.28-3.47-3.93,0-5.83,2.62-5.83,6.37,0,3.51,2,7,5.89,7,3.16,0,5.14-2,5.44-2.94a0.34,0.34,0,0,1,.28-0.26,0.2,0.2,0,0,1,.18.22l-0.46,2c0,0.08-1.45,1.59-6,1.59a6.75,6.75,0,0,1-7.1-7A7.28,7.28,0,0,1,251.56,84.49Z"/><path class="cls-3" d="M266,90.54c0,0.69,0,.69.77,0.69H269c2.1,0,1.55-1.61,2-1.61a0.33,0.33,0,0,1,.22.38c0,0.71,0,1.39,0,2s0,1,0,1.59a0.22,0.22,0,0,1-.22.26c-0.62,0,.06-1.77-1.63-1.77h-3c-0.42,0-.36.34-0.36,0.65v3.71c0,1.19-.16,1.67,1.53,1.67,4.66,0,5.34-2.08,5.6-2.08s0.16,0.2.16,0.24a3.19,3.19,0,0,1-1,2,2,2,0,0,1-2,.69c-1.53,0-3.06-.12-4.6-0.08-0.81,0-1.65.08-2.46,0.08-0.18,0-.3,0-0.3-0.2s0.24-.2.89-0.52,0.56-.81.56-1.75V87.28c0-.91,0-1.87-1.09-2-0.16,0-.6-0.08-0.6-0.32s0.12-.24.71-0.24c3.81,0,4.86.08,5.71,0.08,0.4,0,2.26-.08,2.88-0.08,0.16,0,.2.2,0.2,0.44,0,2.24-.28,2.4-0.4,2.4-0.48,0-.16-1-0.48-1.43-0.52-.69-2.62-0.56-3.43-0.56-1.93,0-1.89-.08-1.89,1.27v3.75Z"/><path class="cls-3" d="M298.6,91.49a2.32,2.32,0,0,1,1.25,2.22c0,2.38-2.62,5.38-6.73,5.38-5.32,0-5.46-4-5.46-4.51a5.22,5.22,0,0,1,3.1-4.76,3.8,3.8,0,0,1-.16-1.17,4.16,4.16,0,0,1,4.21-4.15c1,0,2.26.54,2.26,1.73a1.43,1.43,0,0,1-1.37,1.43c-0.26,0-.38,0-0.38-0.26a4.77,4.77,0,0,1,.32-0.93c0-.66-1-0.89-1.47-0.89a3.11,3.11,0,0,0-2.86,3.25,2.79,2.79,0,0,0,.06.69,3,3,0,0,1,1.51-.32c0.75,0,1.73.32,1.73,1.23a1.52,1.52,0,0,1-1.69,1.49,2.4,2.4,0,0,1-2-1.51,3.17,3.17,0,0,0-1.79,3,4.73,4.73,0,0,0,4.76,4.84c2.14,0,4.9-1.61,4.9-4a1.79,1.79,0,0,0-1.92-2,1.53,1.53,0,0,0-1.61,1.61,1,1,0,0,0,.69,1c0.73,0,.64-0.44.95-0.44a0.16,0.16,0,0,1,.2.16,1.08,1.08,0,0,1-1.27.93c-1.13,0-1.51-1.23-1.51-2.1,0-1.73,1.77-2.46,3.14-3,1.61-.61,4.64-1.75,4.64-3.85A1.37,1.37,0,0,0,300.59,85a1.14,1.14,0,0,0-1.07,1c0,0.83,1.09.3,1.09,1a0.87,0.87,0,0,1-.85.83,1.2,1.2,0,0,1-1.15-1.37,2,2,0,0,1,2.1-2A2.26,2.26,0,0,1,303,86.91C303,89.21,300.43,90.7,298.6,91.49Zm-5.87-1.67a2.08,2.08,0,0,0-1.19.32,1.34,1.34,0,0,0,1.47,1,0.69,0.69,0,0,0,.63-0.66A0.72,0.72,0,0,0,292.73,89.82Z"/><path class="cls-3" d="M318.55,86.41c0-1.47-1.75-1.07-1.75-1.51,0-.18.16-0.22,0.32-0.22,0.75,0,1.47.08,2.22,0.08s1.25-.08,1.88-0.08c0.34,0,.38.12,0.38,0.2,0,0.4-1.45,0-1.45,1.53v4.35c0,0.28,0,.36.3,0.36h7.38c0.2,0,.16-0.5.16-0.58V86.41c0-1.39-1.51-1-1.51-1.51,0-.12,0-0.22.34-0.22,0.66,0,1.71.08,2.1,0.08,0.75,0,1-.08,1.45-0.08s0.56,0.2.56,0.32c0,0.36-1.35,0-1.35,1.41V97.09c0,1.47,1.83,1.11,1.83,1.61a0.27,0.27,0,0,1-.22.24c-0.54,0-1.17-.08-1.89-0.08-1.29,0-1.85.08-2.24,0.08-0.18,0-.48.06-0.48-0.26,0-.48,1.41-0.2,1.41-1.47V92.38c0-.32.08-0.5-0.16-0.5h-7.44c-0.24,0-.24.12-0.24,0.34v5c0,1.37,1.92.93,1.92,1.55a0.27,0.27,0,0,1-.32.16c-0.26,0-1.73-.08-2.8-0.08a10.56,10.56,0,0,0-1.73.08c-0.16,0-.22-0.1-0.22-0.3,0-.58,1.57.08,1.57-1.91V86.41Z"/><path class="cls-3" d="M336.42,91.73a7.17,7.17,0,0,1,7.4-7.24,7,7,0,0,1,7.28,7.14c0,4.54-3.12,7.46-7.62,7.46S336.42,96,336.42,91.73Zm1.47-.58c0,3.73,2.44,7.34,6.43,7.34,2.94,0,5.3-2.36,5.3-6.09s-2.48-7.24-6.41-7.24C339.83,85.16,337.89,88,337.89,91.15Z"/><path class="cls-3" d="M357.89,88.65c0-4.19-2.44-3-2.44-3.77a0.31,0.31,0,0,1,.3-0.2c0.32,0,.63.08,0.95,0.08s0.63-.08.93-0.08a1,1,0,0,1,.52.46l9.62,10.7a0.65,0.65,0,0,0,.24.22s0.06-.06.06-0.22V87.42c0-2.64-2.24-1.87-2.24-2.54a0.2,0.2,0,0,1,.22-0.2c0.6,0,1.19.08,1.83,0.08s1.55-.08,2-0.08a0.18,0.18,0,0,1,.2.18c0,0.52-1.19.16-1.19,1.63V98.16c0,0.58,0,.87-0.18.87a1.28,1.28,0,0,1-.77-0.56l-8.67-9.76a1.13,1.13,0,0,0-.42-0.38c-0.08,0-.14.06-0.14,0.46V97c0,1.81,1.77,1.11,1.77,1.65a0.22,0.22,0,0,1-.22.26c-0.48,0-1-.08-2-0.08-0.71,0-1.75.08-1.89,0.08s-0.26-.12-0.26-0.22c0-.71,1.77.18,1.77-2.64V88.65Z"/><path class="cls-3" d="M375.72,91.73a7.17,7.17,0,0,1,7.4-7.24,7,7,0,0,1,7.28,7.14c0,4.54-3.12,7.46-7.62,7.46S375.72,96,375.72,91.73Zm1.47-.58c0,3.73,2.44,7.34,6.43,7.34,2.94,0,5.3-2.36,5.3-6.09s-2.48-7.24-6.41-7.24C379.13,85.16,377.19,88,377.19,91.15Z"/><path class="cls-3" d="M405.79,96.75c1.45,2.22,2.44,1.47,2.44,2,0,0.24-1.13.24-1.31,0.24-1.47,0-2.26-1-3-2.18l-2.24-3.53c-0.73-1.13-.42-1.07-2.68-1.07-0.65,0-.52.36-0.52,0.56V97c0,1.73,2.1,1.11,2.1,1.79,0,0.2-.18.16-0.34,0.16s-0.65-.08-2.32-0.08c-0.77,0-1.53.08-2.3,0.08a0.21,0.21,0,0,1-.2-0.22c0-.5,1.47-0.22,1.47-1.75V86.71c0-1.94-1.73-1.11-1.73-1.79a0.35,0.35,0,0,1,.4-0.24,11.39,11.39,0,0,0,1.29.08c1.17,0,2.32-.08,3.37-0.08,0.32,0,4.78-.4,4.78,3.49a3.9,3.9,0,0,1-2.54,3.49Zm-7.34-5.54c0,0.38,1.25.28,2.2,0.28a2.63,2.63,0,0,0,2.8-2.86c0-2.46-1.87-3.29-3.85-3.29-0.73,0-1.15,0-1.15.75v5.12Z"/></g><path class="cls-4" d="M115,89.54c0,0.69,0,.69.77,0.69H118c2.1,0,1.55-1.61,2-1.61a0.33,0.33,0,0,1,.22.38c0,0.71,0,1.39,0,2s0,1,0,1.59a0.22,0.22,0,0,1-.22.26c-0.62,0,.06-1.77-1.63-1.77h-3c-0.42,0-.36.34-0.36,0.65v3.71c0,1.19-.16,1.67,1.53,1.67,4.66,0,5.34-2.08,5.6-2.08a0.23,0.23,0,0,1,.16.24,3.19,3.19,0,0,1-1,2,2,2,0,0,1-2,.69c-1.53,0-3.06-.12-4.6-0.08-0.81,0-1.65.08-2.46,0.08-0.18,0-.3,0-0.3-0.2s0.24-.2.89-0.52,0.56-.81.56-1.75V86.28c0-.91,0-1.87-1.09-2-0.16,0-.6-0.08-0.6-0.32s0.12-.24.7-0.24c3.81,0,4.86.08,5.71,0.08,0.4,0,2.26-.08,2.88-0.08,0.16,0,.2.2,0.2,0.44,0,2.24-.28,2.4-0.4,2.4-0.48,0-.16-1-0.48-1.43-0.52-.69-2.62-0.56-3.43-0.56-1.93,0-1.89-.08-1.89,1.27v3.75Z"/><path class="cls-4" d="M132.95,88.71a1.52,1.52,0,0,0,.52.69,2,2,0,0,0,.6-0.75l1.81-2.6a3.37,3.37,0,0,0,.66-1.31c0-.58-1.11-0.4-1.11-0.89,0-.16.14-0.18,0.26-0.18,0.5,0,.5.08,1.85,0.08a8,8,0,0,0,1.53-.08,0.18,0.18,0,0,1,.16.2c0,0.42-.83,0-2,1.61l-3.06,4.33a0.67,0.67,0,0,0-.16.38,1.38,1.38,0,0,0,.24.52l3.51,5.52c1,1.67,1.79.83,1.79,1.47,0,0.2-.2.22-0.36,0.22s-1-.08-1.83-0.08-1.51.08-1.79,0.08-0.26,0-.26-0.2c0-.42.85-0.34,0.85-0.87a1.75,1.75,0,0,0-.44-1l-2.52-4a0.29,0.29,0,0,0-.2-0.18,0.39,0.39,0,0,0-.28.22l-2.2,3.27a4.14,4.14,0,0,0-.87,1.63c0,0.73,1.27.44,1.27,0.93,0,0.14-.12.2-0.3,0.2-0.52,0-1.07-.08-2-0.08-0.56,0-1.15.08-1.71,0.08-0.18,0-.24-0.06-0.24-0.18,0-.46,1.19-0.28,1.85-1.23l3.71-5.32a1.1,1.1,0,0,0,.2-0.34,1.17,1.17,0,0,0-.2-0.38l-3.12-4.68c-1.49-2.22-2.46-1.35-2.46-1.89a0.23,0.23,0,0,1,.24-0.24c0.46,0,.46.08,2.22,0.08,0.62,0,1.27-.08,1.89-0.08a0.29,0.29,0,0,1,.34.26c0,0.28-.89.18-0.89,0.77a5.92,5.92,0,0,0,1,1.77Z"/><path class="cls-4" d="M151.69,83.49c3.79,0,4.84,1.55,5.42,1.55,0.16,0,.28-0.2.48-0.2s0.22,0.32.28,1.63c0,1.07.22,1.73-.12,1.73a1.07,1.07,0,0,1-.46-0.66c-1.25-2.16-2.68-3.47-5.28-3.47-3.93,0-5.83,2.62-5.83,6.37,0,3.51,2,7,5.89,7,3.16,0,5.14-2,5.44-2.94a0.34,0.34,0,0,1,.28-0.26,0.2,0.2,0,0,1,.18.22l-0.46,2c0,0.08-1.45,1.59-6,1.59a6.75,6.75,0,0,1-7.1-7A7.28,7.28,0,0,1,151.69,83.49Z"/><path class="cls-4" d="M166.14,89.54c0,0.69,0,.69.77,0.69h2.18c2.1,0,1.55-1.61,2-1.61a0.33,0.33,0,0,1,.22.38c0,0.71,0,1.39,0,2s0,1,0,1.59a0.22,0.22,0,0,1-.22.26c-0.62,0,.06-1.77-1.63-1.77h-3c-0.42,0-.36.34-0.36,0.65v3.71c0,1.19-.16,1.67,1.53,1.67,4.66,0,5.34-2.08,5.6-2.08s0.16,0.2.16,0.24a3.19,3.19,0,0,1-1,2,2,2,0,0,1-2,.69c-1.53,0-3.06-.12-4.6-0.08-0.81,0-1.65.08-2.46,0.08-0.18,0-.3,0-0.3-0.2s0.24-.2.89-0.52,0.56-.81.56-1.75V86.28c0-.91,0-1.87-1.09-2-0.16,0-.6-0.08-0.6-0.32s0.12-.24.71-0.24c3.81,0,4.86.08,5.71,0.08,0.4,0,2.26-.08,2.88-0.08,0.16,0,.2.2,0.2,0.44,0,2.24-.28,2.4-0.4,2.4-0.48,0-.16-1-0.48-1.43-0.52-.69-2.62-0.56-3.43-0.56-1.93,0-1.89-.08-1.89,1.27v3.75Z"/><path class="cls-4" d="M181.27,95.47c0,1.19-.16,1.67,1.53,1.67,4.66,0,5.34-2.08,5.6-2.08a0.23,0.23,0,0,1,.16.24,3.19,3.19,0,0,1-1,2,2,2,0,0,1-2,.69c-1.53,0-3.06-.12-4.6-0.08-0.81,0-1.65.08-2.46,0.08-0.18,0-.3,0-0.3-0.2s0.24-.2.89-0.52,0.56-.81.56-1.75V85.25c0-1-1.69-.91-1.69-1.31,0-.22.14-0.26,0.4-0.26,0.42,0,1,.08,2,0.08,1.15,0,1.63-.08,1.94-0.08s0.38,0,.38.28c0,0.46-1.47,0-1.47,1.71v9.8Z"/><path class="cls-4" d="M196.45,95.47c0,1.19-.16,1.67,1.53,1.67,4.66,0,5.34-2.08,5.6-2.08a0.23,0.23,0,0,1,.16.24,3.19,3.19,0,0,1-1,2,2,2,0,0,1-2,.69c-1.53,0-3.06-.12-4.6-0.08-0.81,0-1.65.08-2.46,0.08-0.18,0-.3,0-0.3-0.2s0.24-.2.89-0.52,0.56-.81.56-1.75V85.25c0-1-1.69-.91-1.69-1.31,0-.22.14-0.26,0.4-0.26,0.42,0,1,.08,2,0.08,1.15,0,1.63-.08,1.94-0.08s0.38,0,.38.28c0,0.46-1.47,0-1.47,1.71v9.8Z"/><path class="cls-4" d="M211.66,89.54c0,0.69,0,.69.77,0.69h2.18c2.1,0,1.55-1.61,2-1.61a0.33,0.33,0,0,1,.22.38c0,0.71,0,1.39,0,2s0,1,0,1.59a0.22,0.22,0,0,1-.22.26c-0.62,0,.06-1.77-1.63-1.77h-3c-0.42,0-.36.34-0.36,0.65v3.71c0,1.19-.16,1.67,1.53,1.67,4.66,0,5.34-2.08,5.6-2.08a0.23,0.23,0,0,1,.16.24,3.19,3.19,0,0,1-1,2,2,2,0,0,1-2,.69c-1.53,0-3.06-.12-4.6-0.08-0.81,0-1.65.08-2.46,0.08-0.18,0-.3,0-0.3-0.2s0.24-.2.89-0.52,0.56-.81.56-1.75V86.28c0-.91,0-1.87-1.09-2-0.16,0-.6-0.08-0.6-0.32s0.12-.24.71-0.24c3.81,0,4.86.08,5.71,0.08,0.4,0,2.26-.08,2.88-0.08,0.16,0,.2.2,0.2,0.44,0,2.24-.28,2.4-0.4,2.4-0.48,0-.16-1-0.48-1.43-0.52-.69-2.62-0.56-3.43-0.56-1.93,0-1.89-.08-1.89,1.27v3.75Z"/><path class="cls-4" d="M225.47,87.65c0-4.19-2.44-3-2.44-3.77a0.31,0.31,0,0,1,.3-0.2c0.32,0,.63.08,0.95,0.08s0.63-.08.93-0.08a1,1,0,0,1,.52.46l9.62,10.7a0.65,0.65,0,0,0,.24.22s0.06-.06.06-0.22V86.42c0-2.64-2.24-1.87-2.24-2.54a0.2,0.2,0,0,1,.22-0.2c0.6,0,1.19.08,1.83,0.08s1.55-.08,2-0.08a0.18,0.18,0,0,1,.2.18c0,0.52-1.19.16-1.19,1.63V97.16c0,0.58,0,.87-0.18.87a1.28,1.28,0,0,1-.77-0.56l-8.67-9.76a1.13,1.13,0,0,0-.42-0.38c-0.08,0-.14.06-0.14,0.46V96c0,1.81,1.77,1.11,1.77,1.65a0.22,0.22,0,0,1-.22.26c-0.48,0-1-.08-2-0.08-0.71,0-1.75.08-1.89,0.08s-0.26-.12-0.26-0.22c0-.71,1.77.18,1.77-2.64V87.65Z"/><path class="cls-4" d="M250.56,83.49c3.79,0,4.84,1.55,5.42,1.55,0.16,0,.28-0.2.48-0.2s0.22,0.32.28,1.63c0,1.07.22,1.73-.12,1.73a1.07,1.07,0,0,1-.46-0.66c-1.25-2.16-2.68-3.47-5.28-3.47-3.93,0-5.83,2.62-5.83,6.37,0,3.51,2,7,5.89,7,3.16,0,5.14-2,5.44-2.94a0.34,0.34,0,0,1,.28-0.26,0.2,0.2,0,0,1,.18.22l-0.46,2c0,0.08-1.45,1.59-6,1.59a6.75,6.75,0,0,1-7.1-7A7.28,7.28,0,0,1,250.56,83.49Z"/><path class="cls-4" d="M265,89.54c0,0.69,0,.69.77,0.69H268c2.1,0,1.55-1.61,2-1.61a0.33,0.33,0,0,1,.22.38c0,0.71,0,1.39,0,2s0,1,0,1.59a0.22,0.22,0,0,1-.22.26c-0.62,0,.06-1.77-1.63-1.77h-3c-0.42,0-.36.34-0.36,0.65v3.71c0,1.19-.16,1.67,1.53,1.67,4.66,0,5.34-2.08,5.6-2.08s0.16,0.2.16,0.24a3.19,3.19,0,0,1-1,2,2,2,0,0,1-2,.69c-1.53,0-3.06-.12-4.6-0.08-0.81,0-1.65.08-2.46,0.08-0.18,0-.3,0-0.3-0.2s0.24-.2.89-0.52,0.56-.81.56-1.75V86.28c0-.91,0-1.87-1.09-2-0.16,0-.6-0.08-0.6-0.32s0.12-.24.71-0.24c3.81,0,4.86.08,5.71,0.08,0.4,0,2.26-.08,2.88-0.08,0.16,0,.2.2,0.2,0.44,0,2.24-.28,2.4-0.4,2.4-0.48,0-.16-1-0.48-1.43-0.52-.69-2.62-0.56-3.43-0.56-1.93,0-1.89-.08-1.89,1.27v3.75Z"/><path class="cls-4" d="M297.6,90.49a2.32,2.32,0,0,1,1.25,2.22c0,2.38-2.62,5.38-6.73,5.38-5.32,0-5.46-4-5.46-4.51a5.22,5.22,0,0,1,3.1-4.76,3.8,3.8,0,0,1-.16-1.17,4.16,4.16,0,0,1,4.21-4.15c1,0,2.26.54,2.26,1.73a1.43,1.43,0,0,1-1.37,1.43c-0.26,0-.38,0-0.38-0.26a4.77,4.77,0,0,1,.32-0.93c0-.66-1-0.89-1.47-0.89a3.11,3.11,0,0,0-2.86,3.25,2.79,2.79,0,0,0,.06.69,3,3,0,0,1,1.51-.32c0.75,0,1.73.32,1.73,1.23a1.52,1.52,0,0,1-1.69,1.49,2.4,2.4,0,0,1-2-1.51,3.17,3.17,0,0,0-1.79,3,4.73,4.73,0,0,0,4.76,4.84c2.14,0,4.9-1.61,4.9-4a1.79,1.79,0,0,0-1.92-2,1.53,1.53,0,0,0-1.61,1.61,1,1,0,0,0,.69,1c0.73,0,.64-0.44.95-0.44a0.16,0.16,0,0,1,.2.16,1.08,1.08,0,0,1-1.27.93c-1.13,0-1.51-1.23-1.51-2.1,0-1.73,1.77-2.46,3.14-3,1.61-.61,4.64-1.75,4.64-3.85A1.37,1.37,0,0,0,299.59,84a1.14,1.14,0,0,0-1.07,1c0,0.83,1.09.3,1.09,1a0.87,0.87,0,0,1-.85.83,1.2,1.2,0,0,1-1.15-1.37,2,2,0,0,1,2.1-2A2.26,2.26,0,0,1,302,85.91C302,88.21,299.43,89.7,297.6,90.49Zm-5.87-1.67a2.08,2.08,0,0,0-1.19.32,1.34,1.34,0,0,0,1.47,1,0.69,0.69,0,0,0,.63-0.66A0.72,0.72,0,0,0,291.73,88.82Z"/><path class="cls-4" d="M317.55,85.41c0-1.47-1.75-1.07-1.75-1.51,0-.18.16-0.22,0.32-0.22,0.75,0,1.47.08,2.22,0.08s1.25-.08,1.88-0.08c0.34,0,.38.12,0.38,0.2,0,0.4-1.45,0-1.45,1.53v4.35c0,0.28,0,.36.3,0.36h7.38c0.2,0,.16-0.5.16-0.58V85.41c0-1.39-1.51-1-1.51-1.51,0-.12,0-0.22.34-0.22,0.66,0,1.71.08,2.1,0.08,0.75,0,1-.08,1.45-0.08s0.56,0.2.56,0.32c0,0.36-1.35,0-1.35,1.41V96.09c0,1.47,1.83,1.11,1.83,1.61a0.27,0.27,0,0,1-.22.24c-0.54,0-1.17-.08-1.89-0.08-1.29,0-1.85.08-2.24,0.08-0.18,0-.48.06-0.48-0.26,0-.48,1.41-0.2,1.41-1.47V91.38c0-.32.08-0.5-0.16-0.5h-7.44c-0.24,0-.24.12-0.24,0.34v5c0,1.37,1.92.93,1.92,1.55a0.27,0.27,0,0,1-.32.16c-0.26,0-1.73-.08-2.8-0.08a10.56,10.56,0,0,0-1.73.08c-0.16,0-.22-0.1-0.22-0.3,0-.58,1.57.08,1.57-1.91V85.41Z"/><path class="cls-4" d="M335.42,90.73a7.17,7.17,0,0,1,7.4-7.24,7,7,0,0,1,7.28,7.14c0,4.54-3.12,7.46-7.62,7.46S335.42,95,335.42,90.73Zm1.47-.58c0,3.73,2.44,7.34,6.43,7.34,2.94,0,5.3-2.36,5.3-6.09s-2.48-7.24-6.41-7.24C338.83,84.16,336.89,87,336.89,90.15Z"/><path class="cls-4" d="M356.89,87.65c0-4.19-2.44-3-2.44-3.77a0.31,0.31,0,0,1,.3-0.2c0.32,0,.63.08,0.95,0.08s0.63-.08.93-0.08a1,1,0,0,1,.52.46l9.62,10.7a0.65,0.65,0,0,0,.24.22s0.06-.06.06-0.22V86.42c0-2.64-2.24-1.87-2.24-2.54a0.2,0.2,0,0,1,.22-0.2c0.6,0,1.19.08,1.83,0.08s1.55-.08,2-0.08a0.18,0.18,0,0,1,.2.18c0,0.52-1.19.16-1.19,1.63V97.16c0,0.58,0,.87-0.18.87a1.28,1.28,0,0,1-.77-0.56l-8.67-9.76a1.13,1.13,0,0,0-.42-0.38c-0.08,0-.14.06-0.14,0.46V96c0,1.81,1.77,1.11,1.77,1.65a0.22,0.22,0,0,1-.22.26c-0.48,0-1-.08-2-0.08-0.71,0-1.75.08-1.89,0.08s-0.26-.12-0.26-0.22c0-.71,1.77.18,1.77-2.64V87.65Z"/><path class="cls-4" d="M374.72,90.73a7.17,7.17,0,0,1,7.4-7.24,7,7,0,0,1,7.28,7.14c0,4.54-3.12,7.46-7.62,7.46S374.72,95,374.72,90.73Zm1.47-.58c0,3.73,2.44,7.34,6.43,7.34,2.94,0,5.3-2.36,5.3-6.09s-2.48-7.24-6.41-7.24C378.13,84.16,376.19,87,376.19,90.15Z"/><path class="cls-4" d="M404.79,95.75c1.45,2.22,2.44,1.47,2.44,2,0,0.24-1.13.24-1.31,0.24-1.47,0-2.26-1-3-2.18l-2.24-3.53c-0.73-1.13-.42-1.07-2.68-1.07-0.65,0-.52.36-0.52,0.56V96c0,1.73,2.1,1.11,2.1,1.79,0,0.2-.18.16-0.34,0.16s-0.65-.08-2.32-0.08c-0.77,0-1.53.08-2.3,0.08a0.21,0.21,0,0,1-.2-0.22c0-.5,1.47-0.22,1.47-1.75V85.71c0-1.94-1.73-1.11-1.73-1.79a0.35,0.35,0,0,1,.4-0.24,11.39,11.39,0,0,0,1.29.08c1.17,0,2.32-.08,3.37-0.08,0.32,0,4.78-.4,4.78,3.49a3.9,3.9,0,0,1-2.54,3.49Zm-7.34-5.54c0,0.38,1.25.28,2.2,0.28a2.63,2.63,0,0,0,2.8-2.86c0-2.46-1.87-3.29-3.85-3.29-0.73,0-1.15,0-1.15.75v5.12Z"/><g class="cls-2"><path class="cls-3" d="M127.58,51.57c0,12.58,9.17,8,9.17,11,0,0.62-.35,1.05-2.53,1.05-3,0-4.28-.35-9.43-0.35-4.11,0-7,.35-9.52.35a1.26,1.26,0,0,1-1.4-1.05c0-2.35,6.82.35,6.82-9.35V11.39c0-10.48-7.16-5.15-7.16-8.29a1.2,1.2,0,0,1,1.13-1.31c0.79,0,3.85.35,8.91,0.35,4.37,0,5.76-.35,10-0.35,11.09,0,23.41,3.84,23.41,16.86,0,3.49-2.62,16.77-21.23,16.77-0.87,0-5.94-.44-5.94-2a0.76,0.76,0,0,1,.88-0.79,43.49,43.49,0,0,0,5.68.52c8.91,0,14.15-4.28,14.15-12.14,0-10.57-8.12-16.16-18.16-16.16-2.8,0-4.72,0-4.72,2.62V51.57Z"/><path class="cls-3" d="M169.55,9.3c-0.09-6.38-7.08-4.63-7.08-6.55,0-.79.18-1,0.88-1,3.23,0,6.38.35,9.61,0.35,2.7,0,5.42-.35,8.12-0.35,1.4,0,1.66.17,1.66,0.87,0,2.1-6.29.09-6.29,6.64V56.2c0,5.94,7.77,3.93,7.77,6.55,0,0.61-.26.87-1.75,0.87-2,0-5.77-.35-9.52-0.35-5.33,0-7.16.35-8.39,0.35-1.57,0-1.84-.44-1.84-1.31,0-2.53,6.82.35,6.82-8.3V9.3Z"/><path class="cls-3" d="M201.55,19C201.55,0.83,191,5.89,191,2.66a1.34,1.34,0,0,1,1.31-.87c1.4,0,2.71.35,4.1,0.35s2.71-.35,4-0.35c1,0,1.75,1.39,2.27,2l41.66,46.38a2.8,2.8,0,0,0,1.05,1c0.17,0,.26-0.26.26-1V13.67c0-11.44-9.7-8.13-9.7-11a0.85,0.85,0,0,1,1-.87c2.62,0,5.15.35,7.95,0.35,3,0,6.73-.35,8.82-0.35a0.76,0.76,0,0,1,.87.78c0,2.27-5.15.7-5.15,7.08V60.22c0,2.53-.09,3.75-0.79,3.75s-1.48-.44-3.32-2.45L207.75,19.26c-0.17-.18-1.22-1.66-1.83-1.66-0.35,0-.61.26-0.61,2V55.33c0,7.86,7.69,4.8,7.69,7.16a1,1,0,0,1-1,1.13c-2.1,0-4.54-.35-8.82-0.35-3.06,0-7.6.35-8.21,0.35-1.05,0-1.14-.53-1.14-1,0-3.06,7.68.79,7.68-11.45V19Z"/><path class="cls-3" d="M318.35,31.13c0.7,0,2.36-.35,2.36.79,0,1.84-4.46-.17-4.46,5.68V55.42c-9,2.88-11.35,8.82-26.9,8.82-19.3,0-31.27-12-31.27-31.36C258.08,14,272.23,1,290.75,1c15.11,0,19.48,5.94,21.92,5.94,1,0,1.31-1.57,2.28-1.57,1.22,0,.87,1.31,1,2l0.87,11.44c0,0.7-.09,1.57-1,1.57-2.27,0-6.2-16.86-26.81-16.86-15.73,0-23.59,13.28-23.59,27.69,0,15.47,8.91,30.23,25.77,30.23,7.94,0,18.17-3.93,18.17-11.35V36.55c0-4.11-7.6-2.27-7.6-4.46,0-1.13,1.22-1,2-1h14.59Z"/><path class="cls-3" d="M339.4,7.9c0-3.41,1.84-3.24,5-3.24,8.56,0,16.68,3.58,16.68,14.23,0,10.83-8.38,12.41-12.14,12.41-4.11,0-9.52.44-9.52-1.22V7.9ZM356.6,32c6.11-2.44,11-8.3,11-15.11,0-16.86-19.3-15.11-20.7-15.11-4.54,0-9.52.35-14.59,0.35a50.07,50.07,0,0,1-5.59-.35c-1.05,0-1.75.52-1.75,1,0,3,7.51-.61,7.51,7.78V55.07c0,6.64-6.37,5.42-6.37,7.6a0.9,0.9,0,0,0,.87,1c3.32,0,6.64-.35,10-0.35,7.25,0,9.26.35,10,.35s1.48,0.18,1.48-.7c0-3-9.08-.26-9.08-7.77V36.72c0-.87-0.52-2.45,2.27-2.45,9.78,0,8.47-.26,11.62,4.63L363,54.19c3.32,5,6.72,9.43,13.1,9.43,0.79,0,5.68,0,5.68-1.05,0-2.09-4.28,1.14-10.57-8.47Z"/><path class="cls-3" d="M377.3,7.29c-2.28-3.76-6.55-2.71-6.55-4.19a1.32,1.32,0,0,1,1.14-1.31c2.36,0,4,.35,10,0.35,2.88,0,5.24-.35,6.12-0.35,0.61,0,1.66.09,1.66,0.87,0,1.49-4.1,1.58-4.1,4.11a7.11,7.11,0,0,0,1.57,3.58L397.65,27.2c0.7,1.05,1.22,1.57,1.75,1.57s1-.61,1.66-1.74l9-14.59a8.24,8.24,0,0,0,1.83-4.8c0-4.28-6.55-2.45-6.55-4.54,0-1.13.87-1.31,1.84-1.31,2.09,0,4.28.35,6.38,0.35,2.53,0,5.07-.35,7.6-0.35a1.11,1.11,0,0,1,1,1c0,1-1.49,1.31-2.1,1.66-2.36,1.4-3.49,3.84-4.89,6l-12.23,19c-1.4,2.18-2.1,2.62-2.1,3.93v21.4c0,7.6,7.16,5.16,7.16,7.86,0,0.79-.79.87-2,0.87s-6.38-.35-9.61-0.35c-3.93,0-7.07.35-7.86,0.35s-1.31-.09-1.31-1.05c0-2.44,6.73-.17,6.73-6.37V35.06c0-1.66-1.31-3.41-2-4.45Z"/><path class="cls-3" d="M73.12,35.16c-1.13-2.57,1.14-9.65,3.1-14.44,1.8-4.42,1.85-7,.41-9.09S71.06,7.35,69,6.27C65.17,4.17,64.34,2,63,2.19c-1.86.31-3.82,3.67-3.82,3.67A36,36,0,0,0,47.84,4.28a34.22,34.22,0,0,0-11.3,1.58s-2-3.36-3.82-3.67c-1.33-.23-2.16,2-6,4.08-2,1.08-6.14,3.3-7.58,5.37s-1.39,4.67.42,9.09c2,4.79,4.22,11.87,3.09,14.44,0,0-12.72-.85-6.38,17.58,0,0,1.59,4.54,8.21,8.52a6.16,6.16,0,0,1,2.4,3.38L29.32,65A10.49,10.49,0,0,0,32,71.32c2.6,3,4.34,3.79,5.76,5.54,2.3,2.85,2.91,3.74,3.22,5.6L43.25,83s1,3.61,4.59,3.61A4.61,4.61,0,0,0,52.48,83l2.24-.49c0.31-1.85.92-2.74,3.23-5.6,1.42-1.75,3.15-2.58,5.75-5.54A10.5,10.5,0,0,0,66.41,65l2.48-.36a6.15,6.15,0,0,1,2.4-3.38c6.62-4,8.21-8.52,8.21-8.52C85.85,34.31,73.12,35.16,73.12,35.16ZM62,4.93a2.45,2.45,0,0,1,.73-0.55c0.41-.16.57,0.34,0.88,0.45l0.25,0.29a9.27,9.27,0,0,1,.86.63,4.75,4.75,0,0,1,.64.46,4.52,4.52,0,0,1,.7.46,3.28,3.28,0,0,1,.65.46c0.61,0.33,1.22.74,1.83,1.06a0.4,0.4,0,0,0,.32.19c0.46,0.28.92,0.53,1.39,0.84a1.88,1.88,0,0,1,.61.3,0.63,0.63,0,0,1,.31.25,1.06,1.06,0,0,1-.43.32,5.66,5.66,0,0,0-1.81,1.39,3,3,0,0,1-.33.47,6.31,6.31,0,0,1-.26.6,1.63,1.63,0,0,1-.14.51,0.25,0.25,0,0,1-.07.26c-0.06.08-.15,0-0.21,0-0.55-.44-0.92-1-1.46-1.5a0.63,0.63,0,0,0-.32-0.29,5.46,5.46,0,0,0-.72-0.65c-0.27-.35-0.69-0.62-1-1a6.89,6.89,0,0,1-1-.75,10.79,10.79,0,0,1-1.21-1.05c-0.3-.1-0.44-0.41-0.72-0.48a2.36,2.36,0,0,1-.41-0.56A2.86,2.86,0,0,1,62,4.93Zm-37.71,5a3.32,3.32,0,0,1,1.21-.71,5.85,5.85,0,0,0,.82-0.43A13.69,13.69,0,0,1,27.47,8a16.48,16.48,0,0,0,2.59-1.87A21.24,21.24,0,0,0,32.3,4.46a1.61,1.61,0,0,1,.64.22l0.69,0.71a5.17,5.17,0,0,1,.47.9,4.74,4.74,0,0,1,.09.86,0.74,0.74,0,0,0-.09.29,18.51,18.51,0,0,0-1.58,1.25A10.29,10.29,0,0,1,31,9.91c-0.23.42-.74,0.57-1,1-0.49.36-.8,0.84-1.28,1.25a14.24,14.24,0,0,1-1.36,1.39c-0.11,0-.15-0.13-0.19-0.19a3.25,3.25,0,0,0-.44-1.27,7,7,0,0,0-1.17-1.35c-0.42-.21-0.82-0.43-1.24-0.65A0.15,0.15,0,0,1,24.28,9.89ZM77.62,52.15s-1.68,3.87-7.74,8A6.37,6.37,0,0,0,67.79,63l-3,.55a11,11,0,0,1-2.32,6.29c-2.37,2.9-4.07,3.6-5.42,5.27-2.19,2.71-3.32,3.89-3.62,5.66l-2.14.47s-0.49,3.57-3.48,3.57-3.41-3.57-3.41-3.57l-2.14-.47C42,79,40.86,77.82,38.68,75.11c-1.35-1.67-3-2.36-5.42-5.27a11,11,0,0,1-2.32-6.29L28,63a6.31,6.31,0,0,0-2.09-2.86c-6.07-4.12-7.74-8-7.74-8C12,34.83,24.07,37.28,24.07,37.28c1.7-4.74-.26-10.56-2.11-15.12-1.72-4.19-2.27-7.21-1.6-8.36,0,0,.54,2.74,2.58,3.15s3.86,0.19,8.67-5.11C36.9,6,45.52,6.06,47.84,6.06S59,6.21,64.15,11.84c4.81,5.29,6.61,5.52,8.67,5.11S75.4,13.8,75.4,13.8c0.67,1.14.11,4.16-1.6,8.36C71.93,26.72,70,32.54,71.68,37.28,71.68,37.28,83.71,34.83,77.62,52.15Z"/><path class="cls-3" d="M94.59,39.07c-0.28-2.18-.72-4.28-1.17-6.38-0.31-1.09-.76-2.12-1.17-3.17a12.14,12.14,0,0,0-1.42-2.32,2.51,2.51,0,0,0-2.47-.74,1,1,0,0,1-.74.12,3.25,3.25,0,0,1,0-.89c0.11-4,.62-8.51-2.07-11.53a0.11,0.11,0,0,0-.18,0c-0.1.61-.23,1.26-0.33,1.89a15.94,15.94,0,0,1-.86,3c0,0.06-.1.21-0.21,0.16a0.34,0.34,0,0,1-.1-0.12,12.29,12.29,0,0,0-2.18-4.38,7,7,0,0,0-2.57-2,0.4,0.4,0,0,0-.31,0,0.63,0.63,0,0,0,.08.33,5,5,0,0,1,.76,1.85,8.61,8.61,0,0,1,.21,2,29.16,29.16,0,0,1-.86,7.63,13.19,13.19,0,0,0-.51,6.44,8.72,8.72,0,0,0,2.15,3.77,3.48,3.48,0,0,0,2.39.88,1.39,1.39,0,0,1,.37.77,14.92,14.92,0,0,1,.57,2.7,42,42,0,0,1,.51,7.46,38.91,38.91,0,0,1-2.3,12.32c-0.47,1.34-1.06,2.63-1.66,3.91a35.5,35.5,0,0,1-2.16,3.93c-0.65,1-1.38,2-2.13,3-0.4.52-.81,1-1.24,1.48-0.51.65-1.13,1.25-1.68,1.87-0.84.76-1.65,1.64-2.55,2.3-0.68.7-1.65,1.09-1.94,2.06a1.53,1.53,0,0,0,.26,1.6c0.64,0.84,1.73.86,2.37,1.67a0.35,0.35,0,0,1-.22.36c-1.05.75-2.06,1.49-3.15,2.12a37.28,37.28,0,0,1-7.57,3.52c-0.92.23-1.77,0.64-2.71,0.79a3.8,3.8,0,0,1-1,.23,5.16,5.16,0,0,1-1.11.27,11.42,11.42,0,0,1-1.71.27,2.18,2.18,0,0,1-.82.12,4.5,4.5,0,0,1-.92.15,14.77,14.77,0,0,1-2.41.16,23.18,23.18,0,0,1-2.94,0A34.88,34.88,0,0,1,41,88c-1.09-.18-2.1-0.5-3.16-0.7a2.8,2.8,0,0,0-.46-0.17,11.34,11.34,0,0,1-1.11-.33c-1.37-.45-2.71-1-4.05-1.58-0.61-.29-1.23-0.55-1.8-0.89-0.33-.22-0.68-0.35-1-0.57a9.35,9.35,0,0,1-1-.51A21.21,21.21,0,0,1,26.57,82a0.29,0.29,0,0,1-.21-0.12,0.63,0.63,0,0,1,.21-0.44,2.26,2.26,0,0,1,.68-0.49c0.23-.17.51-0.2,0.74-0.4a2.91,2.91,0,0,0,1-1.27,2.1,2.1,0,0,0-.93-2c-0.7-.56-1.44-1-2.14-1.61-0.51-.47-1-0.88-1.54-1.33A1.57,1.57,0,0,0,24,74a38.37,38.37,0,0,1-4.14-4.5A13.66,13.66,0,0,0,19,68.37a42.22,42.22,0,0,1-3.33-5.61,40.66,40.66,0,0,1-3.42-10.47c-0.16-1.18-.38-2.38-0.47-3.6a4.91,4.91,0,0,1-.1-1.18,2.53,2.53,0,0,1,0-.7c0-.29,0-0.62,0-0.88,0-.82,0-1.69.06-2.51a19.88,19.88,0,0,1,.19-2.32A16.74,16.74,0,0,1,12,39.31,0.75,0.75,0,0,0,12.11,39c0.08-.19,0-0.42.1-0.6a3.68,3.68,0,0,1,1.34-1.1,8.34,8.34,0,0,0,2.1-2,6.75,6.75,0,0,0,.68-1,7.76,7.76,0,0,0,.7-2.57c0.27-2.28-.56-4.31-1.09-6.39a31.31,31.31,0,0,1-.9-4.42C14.91,20,14.91,19,14.84,18a11.86,11.86,0,0,1,.41-2.61,4.72,4.72,0,0,0,.48-1.09,0.13,0.13,0,0,0-.15-0.1,3.19,3.19,0,0,0-1.23.73,10.93,10.93,0,0,0-3.37,6L10.9,21a0.19,0.19,0,0,1-.19-0.1,16.93,16.93,0,0,1-1.28-4c-0.1-.24-0.1-0.56-0.22-0.82a0.16,0.16,0,0,0-.16,0,10.93,10.93,0,0,0-.72,1.06,11.11,11.11,0,0,0-1,3.21A41.9,41.9,0,0,0,7.52,28a13.12,13.12,0,0,1,.1,2.86A3.33,3.33,0,0,1,6,33.61a3.31,3.31,0,0,1-1.28-.12,2.35,2.35,0,0,0-1.13,0,2.33,2.33,0,0,0-1.26,1,5,5,0,0,0-.54,2.13,64.72,64.72,0,0,0-.8,8.5A60.43,60.43,0,0,0,2.07,55.52c0.28,1.25.59,2.5,1,3.72a39,39,0,0,0,1.27,3.95,69.72,69.72,0,0,0,3,6.44,62.49,62.49,0,0,0,4.63,6.93c0.87,1.07,1.79,2.18,2.75,3.17a25.12,25.12,0,0,0,1.86,1.93,27.62,27.62,0,0,0,2.14,1.88c0.74,0.67,1.56,1.13,2.28,1.85a0.4,0.4,0,0,1,0,.37,7,7,0,0,0-.29.66,3.44,3.44,0,0,0-.18,3.19A5.28,5.28,0,0,0,21.59,91c0.31,0.22.6,0.47,0.88,0.71a4.48,4.48,0,0,1,.89.62,10.8,10.8,0,0,1,1.21.64c0.33,0.25.7,0.32,1.05,0.55,0.51,0.17.92,0.54,1.44,0.72a1.43,1.43,0,0,0,.49.22c0.23,0.15.5,0.21,0.73,0.33a52.27,52.27,0,0,0,11.5,3.49A45.39,45.39,0,0,0,52,98.86a48.6,48.6,0,0,0,6.29-.93c0.91-.17,1.75-0.43,2.63-0.62C61.47,97.13,62,97,62.56,96.8c0.29,0,.52-0.23.82-0.25,0.53-.22,1.09-0.34,1.6-0.57a7.55,7.55,0,0,0,1.71-.7,0.37,0.37,0,0,0,.21,0,2.81,2.81,0,0,0,.76-0.31,15.62,15.62,0,0,0,2-1,4,4,0,0,0,.94-0.44A6.1,6.1,0,0,0,71.53,93c0.43-.2.85-0.51,1.3-0.7s0.83-.43,1.17-0.74a4.21,4.21,0,0,1,.58-0.33c0.15-.12.24-0.12,0.61-0.36a1.88,1.88,0,0,0,.23-0.2,4,4,0,0,0,.74-0.59,8.5,8.5,0,0,0,1.29-1.38,3,3,0,0,0,.43-2.55,3,3,0,0,0-.47-1.14c-0.17-.39-0.68-0.8-0.31-1.24a3.57,3.57,0,0,1,.34-0.24c0.58-.51,1.24-1,1.79-1.54s0.88-.74,1.3-1.19c0.19-.31.55-0.47,0.76-0.78a0.67,0.67,0,0,1,.29-0.29c0.51-.69,1.15-1.2,1.66-1.88a56.7,56.7,0,0,0,3.66-5,38.59,38.59,0,0,0,2-3.41c0.51-.88.94-1.79,1.35-2.69a51.4,51.4,0,0,0,3.87-12,59.42,59.42,0,0,0,.8-6.77A44.31,44.31,0,0,0,94.59,39.07ZM81.77,29.5a2.36,2.36,0,0,0-1.06,2l0,0a4.12,4.12,0,0,1-.54-1.36,7,7,0,0,1,.11-3.57,40.44,40.44,0,0,0,1.27-8.41c0-.06.11-0.15,0.19-0.06a12.3,12.3,0,0,1,1.38,4c0.11,0.43.18,0.89,0.31,1.32a0.21,0.21,0,0,0,.11.12,0.3,0.3,0,0,0,.22-0.18,30.23,30.23,0,0,0,1.79-3.54,0.12,0.12,0,0,1,.15,0,2.88,2.88,0,0,1,.22.95A16.62,16.62,0,0,0,86,22.42,8.92,8.92,0,0,0,85.91,24c0,1-.29,2-0.25,3.08a0.88,0.88,0,0,1-.12.5A40.4,40.4,0,0,1,81.77,29.5Zm-74,5a5.84,5.84,0,0,0,1.73-3,14.88,14.88,0,0,0,.1-1.69,28.62,28.62,0,0,0-.45-3.56,17.32,17.32,0,0,1-.06-4.28,0.2,0.2,0,0,1,.12-0.16,0.39,0.39,0,0,1,.27.28,26.86,26.86,0,0,0,1.79,3.13,0.35,0.35,0,0,0,.29.17,1.19,1.19,0,0,0,.18-0.62,20.6,20.6,0,0,1,1-4.21,2.34,2.34,0,0,1,.37-0.6,0.13,0.13,0,0,1,.14.13c0,0.41,0,.82.13,1.23s0.13,1,.23,1.48a31.63,31.63,0,0,0,.66,3.14,34.42,34.42,0,0,1,1.09,4.38,8.93,8.93,0,0,1-.52,3,6.79,6.79,0,0,1-2.92,3.15,6.79,6.79,0,0,1-1.62-.6C9.54,35.48,8.77,35.18,8,34.82a1.11,1.11,0,0,1-.29-0.24Zm13.9,49.23a3.76,3.76,0,0,1-1.16-.81A14.81,14.81,0,0,1,19,81.56a24.81,24.81,0,0,1-2.43-2.22,50.7,50.7,0,0,1-5.68-7,58.4,58.4,0,0,1-3.19-5.49C7.09,65.39,6.41,64,5.87,62.51A49.63,49.63,0,0,1,2.75,43.35a52.87,52.87,0,0,1,.78-7A1.1,1.1,0,0,1,4,35.5c0.95-.39,1.69.41,2.49,0.69a23.22,23.22,0,0,0,3.39,1.27,1.26,1.26,0,0,1,.58.45,11.79,11.79,0,0,1-.17,1.65C10.13,41.24,10,43,10,44.7a33.57,33.57,0,0,0,.18,4.48,28.21,28.21,0,0,0,.54,3.76,33.12,33.12,0,0,0,1.5,5.68,37.16,37.16,0,0,0,2.92,6.67,38,38,0,0,0,2.59,4.17A44.5,44.5,0,0,0,21.53,74c0.21,0.34.59,0.5,0.8,0.83s0.53,0.51.82,0.72c0.49,0.45,1,1,1.54,1.34s1.22,1,1.83,1.44a1.64,1.64,0,0,1,.3.58c0,0.45-.49.44-0.76,0.66a3.82,3.82,0,0,0-1.14.95c-0.4.31-.77-0.17-1.22,0-0.74.21-.88,1-1.21,1.58a4.25,4.25,0,0,0-.33.84A1.52,1.52,0,0,1,21.67,83.68Zm53.74,4.85c-0.78.6-1.61,1.15-2.43,1.67s-1.87,1-2.78,1.58c-0.74.35-1.48,0.74-2.24,1.09a0.84,0.84,0,0,1-.39.17c-0.86.41-1.75,0.72-2.63,1.07-0.57.24-1.21,0.41-1.78,0.65a2,2,0,0,0-.6.21,2,2,0,0,0-.68.18c-1.73.43-3.42,0.93-5.18,1.27a14.47,14.47,0,0,1-1.89.29,2,2,0,0,1-.77.1,14.37,14.37,0,0,1-2.2.29c-1,0-1.85.15-2.84,0.17H48.66l-2,0c-0.17,0-.34,0-0.5,0a44.61,44.61,0,0,1-5.92-.64A52.24,52.24,0,0,1,34,95a43.51,43.51,0,0,1-11.09-5.12,0.73,0.73,0,0,1-.38-0.4,1.54,1.54,0,0,1-.52-1,2.58,2.58,0,0,1,.08-0.79c0.06-.29.23-0.53,0.31-0.81s0.18-.32.27-0.59c0.34-.7.53-1.47,0.94-2.14a3.18,3.18,0,0,1,.31-0.78,1.24,1.24,0,0,1,.43-0.6,0.69,0.69,0,0,1,.68.25,1.56,1.56,0,0,0,.31.16c0.93,0.64,1.91,1.22,2.87,1.79a4.34,4.34,0,0,1,.48.27,0.74,0.74,0,0,1,.27.14s0.53,0.29.8,0.39a45,45,0,0,0,4.4,2c0.27,0,.47.2,0.72,0.24a5,5,0,0,1,.72.3,11.18,11.18,0,0,1,1.52.43c0.41,0.08.82,0.2,1.21,0.29a3.08,3.08,0,0,0,.37.14c1.07,0.16,2.08.45,3.14,0.58a32.5,32.5,0,0,0,4.24.48c1,0.1,2.06,0,3.09.08a1.6,1.6,0,0,1,.68,0,4.54,4.54,0,0,1,.86-0.08,4.49,4.49,0,0,0,.95-0.08,40.53,40.53,0,0,0,8.76-1.76c0.82-.23,1.58-0.61,2.43-0.83,0.9-.41,1.85-0.78,2.74-1.25a6.83,6.83,0,0,0,1.09-.56,16.46,16.46,0,0,0,1.83-1,1.65,1.65,0,0,1,.61-0.35,6.85,6.85,0,0,0,1.42-.94A5.85,5.85,0,0,0,71.3,83a9.31,9.31,0,0,0,.82-0.62,5.2,5.2,0,0,0,1.15-.81,0.47,0.47,0,0,1,.47.31L74,82.25c0.66,1.46,1.44,2.86,2,4.34A1.84,1.84,0,0,1,75.42,88.53ZM92.78,52.39a52.74,52.74,0,0,1-1.67,7.46c-0.39,1.26-.85,2.5-1.3,3.72a0.19,0.19,0,0,0-.14.13l0.07,0a45.79,45.79,0,0,1-4,7.79,52.9,52.9,0,0,1-3.56,4.85c-0.84.95-1.7,2-2.62,2.9-0.29.3-.62,0.59-0.88,0.92-0.78.7-1.58,1.47-2.44,2.13A0.25,0.25,0,0,1,76,82.19a22.12,22.12,0,0,0-1.4-2.67,1.14,1.14,0,0,0-1-.29,1.1,1.1,0,0,1-.66.15,6.3,6.3,0,0,0-2-1.27,0.47,0.47,0,0,1-.17-0.39A0.82,0.82,0,0,1,71,77.3a2.92,2.92,0,0,1,.72-0.64c0.35-.29.66-0.62,1-0.93l0.12-.06a9.06,9.06,0,0,0,1.4-1.38l0.28-.22a41.93,41.93,0,0,0,4.16-5,42.61,42.61,0,0,0,3.17-5.29c0.31-.7.63-1.36,0.91-2.07s0.54-1.34.84-2A25.27,25.27,0,0,0,84.42,57a36.53,36.53,0,0,0,1.26-5.85c0-.41.16-0.75,0.14-1.14a46,46,0,0,0,.26-5.84A47.3,47.3,0,0,0,85,36c-0.41-1.32-.88-2.61-1.42-3.88a1.65,1.65,0,0,1-.23-1.32c0.25-.64,1-0.7,1.5-1a24.51,24.51,0,0,1,3.85-1.61,1.46,1.46,0,0,1,1.44.82,23.91,23.91,0,0,1,1.53,3.85c0.08,0.49.3,0.92,0.34,1.44a53.29,53.29,0,0,1,1,6.37A47.61,47.61,0,0,1,92.78,52.39Z"/><path class="cls-3" d="M8.92,45.95c0.27,0.11.13,0.45,0.15,0.7a2.28,2.28,0,0,0-.43.31C8,47.19,7.37,47.43,6.75,47.7c0,0-.12.12-0.06,0.18a7.18,7.18,0,0,0,1.07.39A13.6,13.6,0,0,1,9,48.73a0.5,0.5,0,0,1,0,.54c-0.5.64-1.44,0.43-2.16,0.64l-2,.35a0.28,0.28,0,0,1-.2-0.16,0.63,0.63,0,0,1,.14-0.66c0.72-.17,1.52-0.15,2.21-0.38a0.1,0.1,0,0,0,.06-0.13,10.47,10.47,0,0,0-1.59-.61A5,5,0,0,1,4.82,48a0.34,0.34,0,0,1-.08-0.33,3.18,3.18,0,0,1,.45-0.27A19.42,19.42,0,0,0,7,46.73l0.07-.12a1,1,0,0,0-.54-0.19C6,46.36,5.45,46.28,4.91,46.2A0.28,0.28,0,0,1,4.69,46a1.56,1.56,0,0,1,0-.56,1.21,1.21,0,0,1,.64,0C6.56,45.58,7.72,45.79,8.92,45.95Z"/><path class="cls-3" d="M9.4,53.67l-2.16-.49a21.26,21.26,0,0,0-2.16-.41,0.93,0.93,0,0,0,0,.65l0.12,0.12a1.18,1.18,0,0,1,.82.37c0.07,0.52.19,1,.23,1.55-0.14.35-.7,0.35-0.72,0.76,0.06,0.21-.06.57,0.23,0.59,0.45-.22.84-0.54,1.29-0.76,0.19-.21.48-0.25,0.67-0.44a1.82,1.82,0,0,0,.5-0.4,3.46,3.46,0,0,1,.35-0.27,4.91,4.91,0,0,0,.64-0.43,0.81,0.81,0,0,0,.37-0.31A0.55,0.55,0,0,0,9.4,53.67ZM7,55a1.56,1.56,0,0,1-.2-1A0.5,0.5,0,0,1,7.28,54a6,6,0,0,1,1,.22c0.06,0,0,.1,0,0.14A2.42,2.42,0,0,1,7,55Z"/><path class="cls-3" d="M10.82,58.63a0.77,0.77,0,0,1,0,.59,6.75,6.75,0,0,0-.78,1.05,0.21,0.21,0,0,0,.18.13,10.69,10.69,0,0,1,1.21.33,1.08,1.08,0,0,1,.23.82,0.83,0.83,0,0,1-.47,0A12.05,12.05,0,0,0,9.5,61.1a1.47,1.47,0,0,0-.53.51,15.37,15.37,0,0,1-1.21,1.44,0.47,0.47,0,0,1-.2-0.29,0.74,0.74,0,0,1-.07-0.61c0.27-.31.5-0.64,0.8-0.93a0.45,0.45,0,0,0,.18-0.43,3.62,3.62,0,0,0-1-.33,1.85,1.85,0,0,1-.66-0.2,1.53,1.53,0,0,1-.23-0.76,0.38,0.38,0,0,1,.33,0C7.55,59.72,8.25,59.85,9,60a0.86,0.86,0,0,0,.5-0.39c0.41-.45.7-0.93,1.15-1.34A0.48,0.48,0,0,1,10.82,58.63Z"/><path class="cls-3" d="M12.92,64.41a0.31,0.31,0,0,1-.17.4L12.38,65c-0.22.15-.43,0.21-0.62,0.33s-0.35.15-.48,0.25l-1.89.91a0.21,0.21,0,0,1-.3,0,0.75,0.75,0,0,1-.2-0.62c0.33-.21.72-0.33,1.05-0.52,0.53-.2,1-0.53,1.5-0.72A4.76,4.76,0,0,1,12.61,64C12.82,64,12.84,64.28,12.92,64.41Z"/><path class="cls-3" d="M15,68.05a0.75,0.75,0,0,1-.25.52c-0.43.51-.8,1-1.19,1.58,0,0-.08.13,0,0.18a2.93,2.93,0,0,0,.78-0.1c0.53-.12,1-0.28,1.57-0.38a0.83,0.83,0,0,1,.53.55A1.17,1.17,0,0,1,16,71a0.44,0.44,0,0,0-.16.22,12.83,12.83,0,0,0-1.24,1l-0.18.21-1.08.94a0.34,0.34,0,0,1-.3-0.23,0.4,0.4,0,0,1-.11-0.41,13.54,13.54,0,0,1,1.36-1.2A2.25,2.25,0,0,0,14.67,71a0.57,0.57,0,0,0-.35,0c-0.76.12-1.47,0.37-2.2,0.47a0.35,0.35,0,0,1-.23-0.23l0-.14c0.45-.7,1.07-1.29,1.46-2,0,0,0-.1-0.08-0.08a22.23,22.23,0,0,0-2.08.87,0.29,0.29,0,0,1-.28-0.09,0.65,0.65,0,0,1-.19-0.53c0.66-.33,1.32-0.6,2-0.91s1.17-.56,1.77-0.79A0.64,0.64,0,0,1,15,68.05Z"/><path class="cls-3" d="M18.74,73.44c-0.81.31-1.64,0.62-2.41,1a17.46,17.46,0,0,0-1.69.7,0.57,0.57,0,0,0,.24.44c0.31,0.39.68-.1,1-0.06a5.28,5.28,0,0,1,1.08,1,0.76,0.76,0,0,1-.12.87,0.7,0.7,0,0,0,.37.68,0.16,0.16,0,0,0,.21,0,2.23,2.23,0,0,0,.31-0.76,3.26,3.26,0,0,0,.5-0.94,1.18,1.18,0,0,0,.22-0.44c0.28-.53.52-1.06,0.77-1.58A0.63,0.63,0,0,0,19.34,74,1,1,0,0,0,18.74,73.44Zm-1.19,2.48A0.9,0.9,0,0,1,17,75.53a0.5,0.5,0,0,1-.17-0.37,3.33,3.33,0,0,1,.91-0.46,0.41,0.41,0,0,1,.39,0A4.29,4.29,0,0,1,17.55,75.92Z"/><path class="cls-3" d="M89.69,33.3A0.36,0.36,0,0,0,89.48,33c-0.43.06-.81,0.29-1.25,0.31-0.05,0-.07-0.06-0.05-0.12,0.25-.47.66-0.89,1-1.35A1.27,1.27,0,0,0,89,31.11c0-.17-0.21-0.15-0.29,0L87.9,32.21a0.49,0.49,0,0,1-.35.27A7.23,7.23,0,0,0,86.91,32a1.38,1.38,0,0,0-1.28.22c-0.86.58-.28,1.74-0.1,2.47a0.42,0.42,0,0,0,.23.29c0.59-.08,1.09-0.36,1.64-0.47s1.4-.43,2.08-0.68l0.24-.15A0.51,0.51,0,0,0,89.69,33.3Zm-3.47.7C86,34,86,33.65,85.94,33.44A0.46,0.46,0,0,1,86.21,33a0.56,0.56,0,0,1,.62-0.11,0.62,0.62,0,0,1,.33.35,0.44,0.44,0,0,1,.06.35A1.93,1.93,0,0,1,86.22,34Z"/><path class="cls-3" d="M90.49,36a1.89,1.89,0,0,1,.19,2,1.78,1.78,0,0,1-1.22.82c-0.82.17-1.62,0.4-2.47,0.53a0.2,0.2,0,0,1-.21-0.12,0.94,0.94,0,0,1-.09-0.58,1.91,1.91,0,0,1,.76-0.23l1.89-.41A0.94,0.94,0,0,0,90,37.43a1,1,0,0,0-.29-1.09,1.26,1.26,0,0,0-1-.08c-0.82.14-1.6,0.39-2.43,0.46A0.84,0.84,0,0,1,86.17,36a2.8,2.8,0,0,1,.76-0.25c0.54-.1,1.07-0.24,1.62-0.35A1.73,1.73,0,0,1,90.49,36Z"/><path class="cls-3" d="M87.57,40.23a1.17,1.17,0,0,0,.23.62A6.38,6.38,0,0,0,89,40.73c0.72-.08,1.42-0.25,2.14-0.28a0.22,0.22,0,0,1,.21.2,0.87,0.87,0,0,1,0,.5,2.45,2.45,0,0,1-1,.24c-0.7.05-1.38,0.21-2.08,0.29a0.53,0.53,0,0,0-.43.19,1.25,1.25,0,0,1-.07.71,0.85,0.85,0,0,1-.37.07,0.22,0.22,0,0,1-.24-0.15c-0.1-.72-0.23-1.43-0.27-2.19a0.32,0.32,0,0,1,.33-0.21C87.38,40.11,87.53,40.09,87.57,40.23Z"/><path class="cls-3" d="M91.6,43.18a10,10,0,0,1,.17,1.52,1.71,1.71,0,0,1,0,.55c0,0.11,0,.18-0.29.21-1.31.08-2.61,0.23-3.93,0.22a0.46,0.46,0,0,1-.13-0.39l-0.1-1.51a0.27,0.27,0,0,1,.16-0.31,0.63,0.63,0,0,1,.48,0,4.64,4.64,0,0,1,.16,1.21,0.94,0.94,0,0,0,.87.06,0.44,0.44,0,0,0,.18-0.48l0-.82a0.51,0.51,0,0,1,.45-0.14,0.26,0.26,0,0,1,.23.14l0.11,1.11c0.16,0.29.53,0.08,0.8,0.12a0.33,0.33,0,0,0,.27-0.2l0-1.12a0.28,0.28,0,0,1,.25-0.2A1.2,1.2,0,0,1,91.6,43.18Z"/><path class="cls-3" d="M91.54,47.23a1.13,1.13,0,0,0-.49-0.38,1.28,1.28,0,0,0-1.23.11,0.9,0.9,0,0,1-.46.37A1.18,1.18,0,0,0,88.17,47a1.23,1.23,0,0,0-.74.91,10.24,10.24,0,0,0-.07,1.56,0.27,0.27,0,0,0,.19.16c1.32,0.07,2.62.17,4,.19a0.26,0.26,0,0,0,.21-0.2A4.46,4.46,0,0,0,91.54,47.23Zm-3.29,1.54a0.26,0.26,0,0,1-.13-0.19,0.83,0.83,0,0,1,.27-0.68,0.51,0.51,0,0,1,.68.25,1,1,0,0,1,0,.54A0.94,0.94,0,0,1,88.25,48.77ZM91,48.82a0.81,0.81,0,0,1-.54.08c-0.17-.08-0.47,0-0.52-0.21a0.92,0.92,0,0,1,.33-1,0.62,0.62,0,0,1,.62,0l0.09,0.13A1.79,1.79,0,0,1,91,48.82Z"/><path class="cls-3" d="M87.82,51a0.6,0.6,0,0,1,0,.47,3,3,0,0,0-.06.83,1.1,1.1,0,0,0,.8.18,0.19,0.19,0,0,0,.19-0.16A10.39,10.39,0,0,1,89,51.18a0.74,0.74,0,0,1,.59,0,0.38,0.38,0,0,1,.06.37,2.33,2.33,0,0,0,0,1,1.17,1.17,0,0,0,.92.15A1.09,1.09,0,0,0,90.7,52a0.8,0.8,0,0,1,.23-0.68,1.35,1.35,0,0,1,.51.08,0.59,0.59,0,0,1,0,.45,10.51,10.51,0,0,1-.26,1.61,0.32,0.32,0,0,1-.27.17c-1.28-.14-2.57-0.31-3.83-0.48A0.19,0.19,0,0,1,86.95,53a19.24,19.24,0,0,1,.23-2A0.69,0.69,0,0,1,87.82,51Z"/><path class="cls-3" d="M90.37,55.46a2.81,2.81,0,0,0-1.13-.88A2.22,2.22,0,0,0,86.8,55a6.3,6.3,0,0,0-.78,2,0.37,0.37,0,0,0,0,.33c1.25,0.4,2.57.67,3.83,1a0.32,0.32,0,0,0,.35-0.06C90.43,57.45,90.88,56.4,90.37,55.46Zm-0.66,1.85a0.3,0.3,0,0,1-.34.07C88.61,57.2,87.8,57,87,56.79a0.7,0.7,0,0,1,0-.71,1.25,1.25,0,0,1,1-.79,1.74,1.74,0,0,1,1.68.88A1.83,1.83,0,0,1,89.72,57.31Z"/><path class="cls-3" d="M85.92,60.33a0.34,0.34,0,0,1,.07.33,0.82,0.82,0,0,0-.48.65,0.47,0.47,0,0,0,.1.34,0.42,0.42,0,0,0,.37.14,1.86,1.86,0,0,0,.88-0.69,1.31,1.31,0,0,1,1.05-.33,1.46,1.46,0,0,1,1.1.8,1.76,1.76,0,0,1-.38,1.77,1,1,0,0,0-.55.35c-0.12.06-.19-0.05-0.25-0.15A0.88,0.88,0,0,1,87.65,63a1.13,1.13,0,0,0,.62-0.74A0.5,0.5,0,0,0,88,61.73a0.49,0.49,0,0,0-.46,0,4.27,4.27,0,0,1-1,.76,0.7,0.7,0,0,1-.64.21A1.62,1.62,0,0,1,85,62.15a1.51,1.51,0,0,1,0-1.56A1.33,1.33,0,0,1,85.61,60C85.8,60,85.82,60.23,85.92,60.33Z"/><path class="cls-3" d="M84,63.45c1.19,0.53,2.36,1.08,3.52,1.61a0.37,0.37,0,0,1-.06.46,3.37,3.37,0,0,0-.33.22c-1.13-.43-2.22-0.93-3.33-1.4-0.13-.14-0.52-0.16-0.38-0.45a1,1,0,0,1,.33-0.51Z"/><path class="cls-3" d="M86.68,67.16c-0.47.05-.93,0.08-1.38,0.15a0.68,0.68,0,0,1-.52-0.05,2.63,2.63,0,0,0-.21-1,1.34,1.34,0,0,0-1.17-.64A1.86,1.86,0,0,0,82,66.86a2.61,2.61,0,0,0-.35.78c0.68,0.55,1.5.84,2.22,1.35,0.42,0.19.82,0.5,1.27,0.7l0.35-.1,0.19-.32A0.2,0.2,0,0,0,85.63,69c-0.31-.23-0.67-0.37-1-0.62a0.1,0.1,0,0,1,0-.16,11.81,11.81,0,0,1,1.4-.19,0.45,0.45,0,0,1,.35-0.2,1.42,1.42,0,0,0,.36-0.6C86.8,67.17,86.71,67.17,86.68,67.16Zm-2.94.64A1.76,1.76,0,0,1,83,67.49a0.67,0.67,0,0,1-.29-0.31,0.8,0.8,0,0,1,.45-0.54,0.6,0.6,0,0,1,.64.13,0.63,0.63,0,0,1,.18.52A0.74,0.74,0,0,1,83.73,67.8Z"/><path class="cls-3" d="M81.38,68.94v0.12l-0.61,1a0.61,0.61,0,0,0,.3.39,0.75,0.75,0,0,0,.5.24c0.33-.27.46-0.68,0.78-1a0.6,0.6,0,0,1,.53.29v0.15l-0.61.94a1.19,1.19,0,0,0,.66.64,0.22,0.22,0,0,0,.19,0c0.3-.3.5-0.67,0.76-1a0.63,0.63,0,0,1,.53.31,1.72,1.72,0,0,1-.43.74c-0.19.24-.31,0.51-0.5,0.74a0.83,0.83,0,0,1-.43.31,13.49,13.49,0,0,1-1.4-1C81,71.42,80.35,71,79.72,70.48c-0.15-.18.08-0.36,0.16-0.52,0.25-.41.6-0.8,0.84-1.21a0.29,0.29,0,0,1,.33-0.12A0.89,0.89,0,0,1,81.38,68.94Z"/><path class="cls-3" d="M78.87,71.51c0.49,0.41.93,0.86,1.44,1.28a2.24,2.24,0,0,1,1.11,2A2.14,2.14,0,0,1,80.61,76a1.43,1.43,0,0,1-1.5.14,10.18,10.18,0,0,1-1.23-.89c-0.41-.43-0.93-0.78-1.32-1.27A0.87,0.87,0,0,1,77,73.44H77.1c0.29,0.25.62,0.49,0.89,0.76l1.32,1.13a0.77,0.77,0,0,0,.7,0,0.89,0.89,0,0,0,.56-0.64,1.06,1.06,0,0,0-.5-1c-0.58-.56-1.23-1.09-1.79-1.67a1.2,1.2,0,0,1,.28-0.47A0.29,0.29,0,0,1,78.87,71.51Z"/><path class="cls-3" d="M76.69,78.09a0.47,0.47,0,0,1-.17-0.37,3.9,3.9,0,0,0,.7-1,1.27,1.27,0,0,0-.18-1,2.24,2.24,0,0,0-.62-0.58,1.22,1.22,0,0,0-1.09,0,0.72,0.72,0,0,0-.19.14,10.23,10.23,0,0,0-1.11,1,0.25,0.25,0,0,0,0,.25c1,1,1.85,1.91,2.82,2.86a0.2,0.2,0,0,0,.29,0A1.32,1.32,0,0,0,77.51,79,6,6,0,0,0,76.69,78.09ZM76.21,77a0.37,0.37,0,0,1-.35.16,3.09,3.09,0,0,1-.68-0.71,0.18,0.18,0,0,1,0-.21A0.84,0.84,0,0,1,76,75.91a1,1,0,0,1,.35.41A0.86,0.86,0,0,1,76.21,77Z"/><path class="cls-3" d="M69,90.75L66.13,88a0.85,0.85,0,0,0-.49-0.32,0.86,0.86,0,0,0-.66.5c0,0.41,0,.83.08,1.21,0.05,1.05.14,2.09,0.19,3.14l0.05,0.08a0.5,0.5,0,0,0,.46-0.19A0.44,0.44,0,0,0,66,92.31a2.63,2.63,0,0,1,.08-0.89,8.82,8.82,0,0,1,1.33-.67c0.36-.18.56,0.28,0.8,0.45A0.8,0.8,0,0,0,68.88,91,0.22,0.22,0,0,1,69,90.85,0.63,0.63,0,0,0,69,90.75Zm-2.91-.23c-0.08,0-.09-0.08-0.11-0.15a9.22,9.22,0,0,1-.09-1.1A0.14,0.14,0,0,1,66,89.11a4.56,4.56,0,0,1,.92.81,0.25,0.25,0,0,1,0,.23A2.2,2.2,0,0,1,66.06,90.52Z"/><path class="cls-3" d="M62.48,89.44c0.47,1.24.95,2.47,1.43,3.7a0.15,0.15,0,0,1-.12.17,2.84,2.84,0,0,0-.43.21,0.23,0.23,0,0,1-.25-0.17c-0.45-1.25-1-2.47-1.45-3.72a0.78,0.78,0,0,1,.6-0.39A0.26,0.26,0,0,1,62.48,89.44Z"/><path class="cls-3" d="M31,90a1.43,1.43,0,0,0,.65-1.12A1.37,1.37,0,0,0,31,87.78a10.27,10.27,0,0,0-1.26-.64,0.22,0.22,0,0,0-.26,0c-0.53,1.09-1,2.21-1.6,3.28a1,1,0,0,0-.2.46,0.79,0.79,0,0,0,.61.31,3.33,3.33,0,0,0,.5-0.87,0.54,0.54,0,0,1,.28-0.28,0.13,0.13,0,0,1,.07.15,5.49,5.49,0,0,1,.23,1.29,1,1,0,0,0,.79.69,0.09,0.09,0,0,0,.08-0.07,13.8,13.8,0,0,0-.21-1.53c0-.16-0.1-0.37.1-0.47A1.62,1.62,0,0,0,31,90Zm-1.29-.62a0.27,0.27,0,0,1-.19-0.14,2.18,2.18,0,0,1,.39-0.9,0.47,0.47,0,0,1,.3-0.17,0.88,0.88,0,0,1,.52.53,0.7,0.7,0,0,1-.22.61A0.68,0.68,0,0,1,29.71,89.33Z"/><path class="cls-3" d="M60.23,90.19a0.55,0.55,0,0,1,.06.45,3.56,3.56,0,0,1-.59.28,0.48,0.48,0,0,0,0,.4c0.3,1,.65,2,0.9,3a0.47,0.47,0,0,1-.46.22,0.25,0.25,0,0,1-.24,0l-0.13-.2c-0.32-1-.65-2.05-1-3.08a1.32,1.32,0,0,0-.72,0c-0.1,0-.13-0.12-0.16-0.17a0.48,0.48,0,0,1,0-.43c0.42-.21.89-0.29,1.33-0.46L60,90A0.22,0.22,0,0,1,60.23,90.19Z"/><path class="cls-3" d="M35.27,89.68a0.54,0.54,0,0,1-.1.56,0.22,0.22,0,0,1-.24.05C34.6,90.21,34.31,90,34,90a0.87,0.87,0,0,0-.48.8,1.07,1.07,0,0,0,.72.45,0.84,0.84,0,0,1,.47.26,0.55,0.55,0,0,1-.28.51c-0.31,0-.54-0.22-0.85-0.23a0.49,0.49,0,0,0-.37-0.05,2.1,2.1,0,0,0-.35.82,0.82,0.82,0,0,0,.66.4,1.75,1.75,0,0,1,.57.3,0.67,0.67,0,0,1-.24.55,3,3,0,0,1-.61-0.16,0.37,0.37,0,0,1-.31-0.13,7.37,7.37,0,0,1-1.07-.44,0.28,0.28,0,0,1,0-.28,11.61,11.61,0,0,0,.44-1.22,5.28,5.28,0,0,0,.4-1c0.09-.26.2-0.54,0.29-0.78a1.68,1.68,0,0,1,.18-0.48c0.08-.1,0-0.29.21-0.3C34,89.17,34.63,89.45,35.27,89.68Z"/><path class="cls-3" d="M56.6,91.22c0.17,1.33.39,2.66,0.56,4a0.61,0.61,0,0,1-.61.23,1.23,1.23,0,0,1-.7-0.54c-0.62-.63-1.15-1.3-1.79-1.85A0.13,0.13,0,0,0,54,93l-0.07.08c0,0.88.22,1.68,0.28,2.54a0.42,0.42,0,0,1-.31.21,0.72,0.72,0,0,1-.45-0.06,13.92,13.92,0,0,1-.24-1.58c-0.1-.86-0.25-1.68-0.34-2.52A0.2,0.2,0,0,1,53,91.51a0.78,0.78,0,0,1,.68,0c0.64,0.67,1.29,1.32,1.88,2L56,93.86a0.09,0.09,0,0,0,.1-0.1,12.82,12.82,0,0,0-.21-1.6,0.92,0.92,0,0,1,0-.26,1.47,1.47,0,0,1,0-.76C56.06,91.09,56.5,90.86,56.6,91.22Z"/><path class="cls-3" d="M37.06,90.36c0.13,0.21,0,.48.15,0.7a2.32,2.32,0,0,0,0,.82,10.86,10.86,0,0,0,.11,1.34,0.2,0.2,0,0,0,.1.08,0.64,0.64,0,0,0,.27-0.3,6.47,6.47,0,0,0,.71-1c0.29-.27.44-0.65,0.7-0.92a0.79,0.79,0,0,1,.7.06,0.31,0.31,0,0,1-.07.35c-0.63.94-1.33,1.87-1.94,2.83-0.24.21-.34,0.74-0.78,0.57a0.45,0.45,0,0,1-.42-0.32c-0.08-.86-0.13-1.75-0.21-2.6-0.08-.49,0-1-0.13-1.5a0.35,0.35,0,0,1,.07-0.27A1.63,1.63,0,0,1,37.06,90.36Z"/><path class="cls-3" d="M43.25,91.56a0.77,0.77,0,0,1,0,.47c0,0.05,0,.19-0.16.17a9.9,9.9,0,0,0-1.21-.05,1.37,1.37,0,0,0-.19.86,0.37,0.37,0,0,0,.33.19,5.31,5.31,0,0,1,1,.16A0.86,0.86,0,0,1,43,94a1.92,1.92,0,0,1-.66,0c-0.25,0-.66-0.21-0.77.13a4.15,4.15,0,0,0-.05.81,0.83,0.83,0,0,0,.48.17,5.65,5.65,0,0,1,.85.14,1,1,0,0,1,0,.52,0.56,0.56,0,0,1-.53.09c-0.54-.06-1.1-0.14-1.64-0.25-0.14-.07-0.06-0.21-0.06-0.35,0.21-1.24.3-2.56,0.5-3.82a0.14,0.14,0,0,1,.14-0.13,14.22,14.22,0,0,1,1.65.17Z"/><path class="cls-3" d="M51.29,91.94a0.5,0.5,0,0,1-.08.5,8.62,8.62,0,0,0-1.15.17,0.46,0.46,0,0,0-.1.46,0.68,0.68,0,0,0,.19.53,6.81,6.81,0,0,1,1.24,0,1.06,1.06,0,0,1,.07.52,0.48,0.48,0,0,1-.42.17,1.68,1.68,0,0,0-.92.23,1.75,1.75,0,0,0,.12.91,0.77,0.77,0,0,0,.41.05,3.71,3.71,0,0,1,.92,0,0.6,0.6,0,0,1,0,.54,0.21,0.21,0,0,1-.22.13c-0.57.06-1.14,0.13-1.7,0.16a0.25,0.25,0,0,1-.26-0.15c-0.17-1.1-.21-2.27-0.32-3.4a2.42,2.42,0,0,1,0-.74,1.28,1.28,0,0,1,.63-0.12,7.52,7.52,0,0,1,1.5-.1Z"/><path class="cls-3" d="M47.64,93.53a1.41,1.41,0,0,0,0-.8c-0.41-.94-1.48-0.84-2.4-0.91A0.21,0.21,0,0,0,45,92c-0.15,1.33-.25,2.68-0.35,4a0.18,0.18,0,0,0,.16.17,1.53,1.53,0,0,0,.59,0c0.11-.38.09-0.78,0.17-1.16l0.06-.15c0-.06.11,0,0.15,0,0.35,0.46.56,1,.91,1.42a2,2,0,0,0,.78.09c0.07,0,.1-0.09.08-0.15l-0.89-1.48c0-.08-0.07-0.22,0-0.27A1.39,1.39,0,0,0,47.64,93.53ZM46,93.91c-0.11,0-.32,0-0.32-0.17a1.51,1.51,0,0,1,.18-1,0.66,0.66,0,0,1,.83.25,0.79,0.79,0,0,1,0,.62A0.75,0.75,0,0,1,46,93.91Z"/><path class="cls-3" d="M44.41,18.71a0.87,0.87,0,0,0,.79-0.94,0.8,0.8,0,1,0-1.57,0A0.87,0.87,0,0,0,44.41,18.71Z"/><path class="cls-3" d="M50.76,18.73a1.17,1.17,0,0,0,0-2.31A1.17,1.17,0,0,0,50.76,18.73Z"/><path class="cls-3" d="M44.41,15.82A0.88,0.88,0,1,0,43.69,15,0.81,0.81,0,0,0,44.41,15.82Z"/><path class="cls-3" d="M70,39.33c-2.66-5.5-.82-11.19,1-15.36a45.43,45.43,0,0,0,1.65-4.86c-2.71,1.35-5.78-.67-10.26-5.06C59.65,11.45,53.8,8.8,47.64,8.8s-12,2.3-14.78,5.2c-4.33,4.54-7.42,6.46-10.13,5.11A44.67,44.67,0,0,0,24.39,24c1.76,4.18,3.61,9.86.95,15.36,0,0-10.63-2.45-5.37,12,0,0,1.77,3.66,7.22,7.06a5.33,5.33,0,0,1,1.9,2.72l3.56,0.68a9,9,0,0,0,1.75,6.11c2,2.45,4.52,3.75,5.73,5.07,2.18,2.36,3.07,3.58,3.34,5.31l2.16,0.48s0.54,2.8,2,2.8,2-2.8,2-2.8l2.16-.48c0.27-1.73,1.16-3,3.35-5.31,1.21-1.32,3.71-2.62,5.72-5.07a9.05,9.05,0,0,0,1.75-6.11l3.56-.68a5.32,5.32,0,0,1,1.9-2.72c5.45-3.4,7.22-7.06,7.22-7.06C80.58,36.88,70,39.33,70,39.33Zm-14.39-26h2v6.19H56.38V14.4H55.56V13.35Zm-6.21,2.19L51,13.1l0.89,0.64-1.27,1.8v0a1.31,1.31,0,0,1,.49-0.09A1.92,1.92,0,0,1,53,17.52a2.11,2.11,0,0,1-2.19,2.19,2.08,2.08,0,0,1-2.18-2.11A3.89,3.89,0,0,1,49.35,15.54Zm-1.35,7a1.37,1.37,0,0,1,1.42,1.53s0,2.8.08,4.15a15.58,15.58,0,0,0,.28,2s0.18,0.62-.24.54a1.71,1.71,0,0,0-.61-0.21c-0.33.08-.21,0.51-0.61,0.5s-0.33-.41-0.64-0.41S47.4,31.06,47,31s-0.27-.5-0.67-0.51-0.47.37-.78,0.18,0.59-1.51.45-4.07c-0.11-2-1.46-1.18-1.72-2s0.85-1.57,1.23-1.77A4.29,4.29,0,0,1,48,22.54ZM42.59,15a1.82,1.82,0,0,1,3.63,0,1.53,1.53,0,0,1-.82,1.36,1.57,1.57,0,0,1,1,1.57,2,2,0,0,1-4,0,1.58,1.58,0,0,1,1-1.57A1.54,1.54,0,0,1,42.59,15Zm-4.92-1.61h2v6.19h-1.2V14.4H37.67V13.35ZM62,43.43a8.35,8.35,0,0,0-.37,1.21,7.68,7.68,0,0,0-.18.76c-0.19.87-.42,1.74-0.54,2.61-0.12.59-.2,1.18-0.29,1.77A18.13,18.13,0,0,0,60.29,52a4.36,4.36,0,0,0-.09.74c0,0.51-.15,1-0.16,1.54a3.77,3.77,0,0,1-.12.89,5.13,5.13,0,0,1-.15,1.47,2.08,2.08,0,0,1-.08,1,2.55,2.55,0,0,1,0,.88c0.14,0.35-.16.67,0,1,0,0.59-.11,1.1-0.05,1.67a0.48,0.48,0,0,1-.25.53c-0.25.06-.51,0.13-0.79,0.17a0.6,0.6,0,0,1-.36,0,6.93,6.93,0,0,1-1.13.28,4.78,4.78,0,0,1-1,.16,0.79,0.79,0,0,1-.58.13,0.67,0.67,0,0,1-.54.14,5.65,5.65,0,0,1-1.14.4,19.27,19.27,0,0,0-2.22.71,0.57,0.57,0,0,0-.37.22,3.51,3.51,0,0,0,.39.76A3.36,3.36,0,0,1,52,66.27,11.33,11.33,0,0,1,51.77,68c-0.33,1.63-1.22,3-.8,4.72a0.6,0.6,0,0,1-.3.46,0.43,0.43,0,0,1-.32,0A2.23,2.23,0,0,1,50,71.33c0.14-1,.55-1.82.63-2.82a4.13,4.13,0,0,0-.11-2.22,2.8,2.8,0,0,0-1.3-1.51,0.94,0.94,0,0,0-.74.51L48.2,76.57a0.58,0.58,0,1,1-1.16.08L47,65.2a0.72,0.72,0,0,0-.59-0.43,1,1,0,0,0-.47.34A4.59,4.59,0,0,0,45,66.65a1.41,1.41,0,0,1-.07.51,13.45,13.45,0,0,0,.54,3.79A3.12,3.12,0,0,1,45.57,72c0,0.2-.07.4-0.07,0.56a0.67,0.67,0,0,1-.17.39,0.49,0.49,0,0,1-.35.16,0.8,0.8,0,0,1-.33-0.83,3.51,3.51,0,0,0-.09-2c-0.12-.32-0.16-0.7-0.28-1a2.26,2.26,0,0,1-.2-0.63,1.63,1.63,0,0,1-.18-0.51,7.63,7.63,0,0,1-.14-1,3.18,3.18,0,0,1,0-.52c0-.16,0-0.37-0.06-0.51a0.87,0.87,0,0,1,.07-0.38,1.89,1.89,0,0,1,.07-0.45A2.07,2.07,0,0,0,43.85,65a4.82,4.82,0,0,1,.53-1c0-.2-0.18-0.2-0.29-0.29a4.46,4.46,0,0,1-.6-0.28A12.39,12.39,0,0,1,42,62.93a4.06,4.06,0,0,1-1.14-.32,3.33,3.33,0,0,0-.42-0.09c-1.37-.31-2.75-0.58-4.17-0.84A0.3,0.3,0,0,1,36,61.43c0-.59-0.06-1.12-0.05-1.71s0-.88-0.06-1.3l0-1c0-.08.13-0.13,0-0.22s0-.43-0.14-0.59a1.57,1.57,0,0,1,0-.55,1.38,1.38,0,0,0-.1-0.27A3.45,3.45,0,0,0,35.5,55a0.84,0.84,0,0,1,0-.51,10.58,10.58,0,0,1-.21-1.17c0-.48-0.13-0.94-0.12-1.42a1.49,1.49,0,0,1-.09-0.75c0-.1-0.1-0.17-0.1-0.27a8.49,8.49,0,0,0-.19-1,0.49,0.49,0,0,0-.08-0.43c0-.35-0.16-0.65-0.17-1a0.45,0.45,0,0,0-.09-0.41c-0.06-.41-0.16-0.79-0.19-1.21A4,4,0,0,0,34,46.13a1.19,1.19,0,0,0-.15-0.65,2.73,2.73,0,0,0-.14-0.57,4.8,4.8,0,0,1-.13-0.73,1.14,1.14,0,0,1-.2-0.69,0.25,0.25,0,0,1-.1-0.29,1,1,0,0,0,.3-0.38,2.35,2.35,0,0,0,.55-0.58,4.76,4.76,0,0,0,.58-0.57,1.24,1.24,0,0,1,.54-0.53,2.68,2.68,0,0,1,.72.1,4.48,4.48,0,0,1,1.2.33,1.16,1.16,0,0,1,.42.09,2.23,2.23,0,0,1,.72.28,3.88,3.88,0,0,1,1.25.38,5.49,5.49,0,0,0,1.31.35,1.1,1.1,0,0,0,.35-0.5,1.63,1.63,0,0,0,.3-0.45,4,4,0,0,1,1.3-1,3.42,3.42,0,0,1,.86-0.25,1.24,1.24,0,0,1,.72.1,1.79,1.79,0,0,1,.61.28,1.44,1.44,0,0,1,.52.66,0.87,0.87,0,0,1-.5.75,3,3,0,0,0-1.48,1.56,0.51,0.51,0,0,0,.34.29,27.13,27.13,0,0,1,2.65,1.31c0.09,0,.21,0,0.22-0.1,0.13-1.2-.08-2.41,0-3.62,0.2-.43.57-0.79,0.75-1.23a0.17,0.17,0,0,1,.29.12c0.19,0.55.81,0.93,0.76,1.58,0.06,1.06-.06,2.16,0,3.18a0.24,0.24,0,0,0,.1.16c0.77-.3,1.49-0.8,2.24-1.15a5.38,5.38,0,0,0,.77-0.37c0-.08.13-0.16,0.05-0.27a4,4,0,0,0-1.62-1.49,0.68,0.68,0,0,1-.32-0.64,1.58,1.58,0,0,1,.91-0.92,2.34,2.34,0,0,1,1-.13,3.31,3.31,0,0,1,1.93,1.12,10,10,0,0,1,.68,1,0.91,0.91,0,0,0,.77-0.15,1,1,0,0,0,.58-0.22c0.69-.21,1.33-0.44,2-0.65a1.36,1.36,0,0,1,.51-0.13c0.35-.18.77-0.2,1.12-0.37a1.47,1.47,0,0,1,.68,0,1.32,1.32,0,0,1,.59.54,1.65,1.65,0,0,0,.54.6,7.09,7.09,0,0,0,.73.74A0.4,0.4,0,0,1,62,43.43Zm1.22-17.67a4.8,4.8,0,0,1-2.43,1C60,27,54.45,28.34,54.54,29s6.81-1.45,7.35-1.29c0.74,0.2-2.35,2.66-2.9,2.82-1,.3-4.29-0.11-4.36.44s3.22,0.38,3.2.85A4.12,4.12,0,0,1,55.28,34c-1,.08-1.94-0.58-2.17-0.1s0.68,2.34.13,2.8S51,36,50.72,36.37s0.23,2.14-.68,2.53-1.76-1.42-2.37-1.45S46,39.24,45.25,38.91s-0.37-2.2-.67-2.53-2,.78-2.53.31,0.37-2.31.13-2.8S41,34.06,40,34a4.07,4.07,0,0,1-2.55-2.17c0-.47,3.27-0.32,3.2-0.85s-3.39-.14-4.37-0.44c-0.54-.17-3.64-2.62-2.89-2.82,0.54-.16,7.26,2,7.36,1.29s-5.44-2-6.26-2.21a4.83,4.83,0,0,1-2.43-1c-1.94-1.54-3.67-5.42-2.89-4.95s3.74,2,6.45,3.16,6.92,2.36,7.86,3.17a3.18,3.18,0,0,1,1,1.22c0.48,1-.14,3,0.36,3.68s0.8,0,1.23.09,0.16,0.63.78,0.61c0.28,0,.3-0.48.76-0.48s0.29,0.53.76,0.48,0.36-.55.79-0.61S50.1,32.6,50.42,32a2.8,2.8,0,0,0,.18-1.8,5.08,5.08,0,0,1,.13-1.81A3.36,3.36,0,0,1,51.95,27c1-.76,5-1.87,7.72-3.05s5.68-2.69,6.45-3.16S65.17,24.22,63.23,25.76Z"/><path class="cls-3" d="M59.79,43l0,0.1a29.7,29.7,0,0,0-1.19,5.5,7.56,7.56,0,0,0-.15,1.22c0.06,0.24-.08.48,0,0.76s-0.1.75-.11,1.13a0.24,0.24,0,0,1,0,.27c0,0.22-.07.45-0.05,0.67s-0.06.61,0,.92l0,0.81c-0.07.38,0,.81-0.07,1.18,0,0.55,0,1.11,0,1.66a0.43,0.43,0,0,1,0,.33,2.61,2.61,0,0,1,0,.73c0,0.53.06,1,.06,1.53a0.8,0.8,0,0,1-.58.2c-1.2.3-2.33,0.72-3.51,1.13-0.55.19-1.07,0.45-1.65,0.65-0.3.11-.58,0.31-0.9,0.4a10.52,10.52,0,0,1-1.23.61,2.31,2.31,0,0,1-.86-0.5,0.16,0.16,0,0,1-.06-0.22,7.34,7.34,0,0,0,2-2.6A5,5,0,0,0,51.71,56a6,6,0,0,0-2-2.93,0.16,0.16,0,0,1,0-.17c0.8-.62,1.66-1.11,2.44-1.83a7.49,7.49,0,0,0,2.61-3.83c0-.35.14-0.68,0.14-1a3.47,3.47,0,0,0-.09-1.93A0.26,0.26,0,0,1,55,44c0.26-.07.54-0.29,0.78-0.33,0.44-.16.8-0.28,1.24-0.4s0.9-.16,1.33-0.25a7.91,7.91,0,0,1,1.36,0Z"/><path class="cls-3" d="M38.73,43.48c0.32,0,.62.23,0.91,0.3s0.54,0.2.72,0.22a0.31,0.31,0,0,1,.16.23,0.34,0.34,0,0,0,0,.2,2,2,0,0,0-.08.88,0.92,0.92,0,0,0,0,.67,5.39,5.39,0,0,0,.15,1.14,0.76,0.76,0,0,1,.14.52,3.42,3.42,0,0,1,.41.86,6.74,6.74,0,0,0,1.07,1.59,6.56,6.56,0,0,0,.94.81c0.12,0.33.54,0.28,0.65,0.58a6.88,6.88,0,0,1,.58.42c0.26,0,.35.36,0.61,0.38,0.23,0.31.63,0.37,0.84,0.68a4.49,4.49,0,0,1-.41.45,1.68,1.68,0,0,1-.41.42c0,0.26-.41.4-0.44,0.66a0.49,0.49,0,0,0-.17.3,0.82,0.82,0,0,0-.25.61,3.78,3.78,0,0,0-.5,1.61,1.89,1.89,0,0,0,.09.85,4.18,4.18,0,0,0,.58,1.95,8,8,0,0,0,1.28,1.7,2.58,2.58,0,0,1,.67.59,1.28,1.28,0,0,1-.58.55,0.3,0.3,0,0,1-.26.16,3.42,3.42,0,0,1-1.14-.51c-0.84-.4-1.75-0.69-2.62-1.05A38.39,38.39,0,0,0,38,60.13a1.51,1.51,0,0,1-.61-0.26c0-.63,0-1.21,0-1.83a1.47,1.47,0,0,0-.05-0.55,0.94,0.94,0,0,0,0-.68,4.2,4.2,0,0,0,0-1,0.42,0.42,0,0,1,0-.28,10.42,10.42,0,0,1-.09-1.2,3.77,3.77,0,0,1,0-.72,0.9,0.9,0,0,0-.1-0.46,3.51,3.51,0,0,0,0-.94,0.21,0.21,0,0,1,0-.26,1.16,1.16,0,0,1,0-.46A3.41,3.41,0,0,1,37,50.72c0-.51-0.11-1-0.16-1.48a3.84,3.84,0,0,0-.09-0.69c-0.08-.3-0.05-0.61-0.13-0.9a3.52,3.52,0,0,0-.16-0.59,10.45,10.45,0,0,0-.25-1.39c-0.19-.82-0.47-1.6-0.69-2.4a0.36,0.36,0,0,1,.05-0.2,3.34,3.34,0,0,1,1.25,0A9.89,9.89,0,0,1,38.73,43.48Z"/><path class="cls-3" d="M52.29,45.51a4.45,4.45,0,0,1,0,2.1c-0.16.47-.42,0.89-0.54,1.36a6.59,6.59,0,0,0-.67.89c-0.3.11-.5,0.41-0.8,0.5a4.29,4.29,0,0,1-.58.5,5.1,5.1,0,0,1-1.11.75A1.11,1.11,0,0,1,48.52,51c0.09-1.2,0-2.47.07-3.64a0.91,0.91,0,0,1,.16-0.54c0.79-.46,1.61-0.85,2.43-1.22A6.69,6.69,0,0,1,52,45.27C52.21,45.22,52.25,45.41,52.29,45.51Z"/><path class="cls-3" d="M46.54,46.66c0.36,0.09.23,0.46,0.33,0.68,0,0.57,0,1.14,0,1.72a0.52,0.52,0,0,1,0,.31c0,0.36,0,.71,0,1.08a3.07,3.07,0,0,1,0,1.06c-0.06.11-.23,0-0.34,0a12.53,12.53,0,0,1-2.63-2.23,10.59,10.59,0,0,1-.82-1.63,0.54,0.54,0,0,0-.1-0.4A4.82,4.82,0,0,0,43,46.39a4,4,0,0,1,.21-1.06,0.16,0.16,0,0,1,.13-0.1A26.38,26.38,0,0,1,46.54,46.66Z"/><path class="cls-3" d="M47,54.49c0.06,2,.1,4,0.14,6.12a4.76,4.76,0,0,1-.11.56,2.06,2.06,0,0,1-.83-0.72c-0.92-1.34-1.59-3.36-.57-4.85a3.12,3.12,0,0,1,1.22-1.24C47,54.32,47,54.42,47,54.49Z"/><path class="cls-3" d="M49.77,55.33a3.76,3.76,0,0,1,.6,3,5.69,5.69,0,0,1-1.72,2.95s-0.06,0-.1-0.05c-0.12-1.59,0-3.3,0-4.94a10.45,10.45,0,0,1,0-1.79,0.14,0.14,0,0,1,.18-0.07A2.91,2.91,0,0,1,49.77,55.33Z"/></g><path class="cls-4" d="M126.58,50.57c0,12.58,9.17,8,9.17,11,0,0.62-.35,1.05-2.53,1.05-3,0-4.28-.35-9.43-0.35-4.11,0-7,.35-9.52.35a1.26,1.26,0,0,1-1.4-1.05c0-2.35,6.82.35,6.82-9.35V10.39c0-10.48-7.16-5.15-7.16-8.29A1.2,1.2,0,0,1,113.65.79c0.79,0,3.85.35,8.91,0.35,4.37,0,5.76-.35,10-0.35,11.09,0,23.41,3.84,23.41,16.86,0,3.49-2.62,16.77-21.23,16.77-0.87,0-5.94-.44-5.94-2a0.76,0.76,0,0,1,.88-0.79,43.49,43.49,0,0,0,5.68.52c8.91,0,14.15-4.28,14.15-12.14,0-10.57-8.12-16.16-18.16-16.16-2.8,0-4.72,0-4.72,2.62V50.57Z"/><path class="cls-4" d="M168.55,8.3c-0.09-6.38-7.08-4.63-7.08-6.55,0-.79.18-1,0.88-1,3.23,0,6.38.35,9.61,0.35,2.7,0,5.42-.35,8.12-0.35,1.4,0,1.66.17,1.66,0.87,0,2.1-6.29.09-6.29,6.64V55.2c0,5.94,7.77,3.93,7.77,6.55,0,0.61-.26.87-1.75,0.87-2,0-5.77-.35-9.52-0.35-5.33,0-7.16.35-8.39,0.35-1.57,0-1.84-.44-1.84-1.31,0-2.53,6.82.35,6.82-8.3V8.3Z"/><path class="cls-4" d="M200.55,18C200.55-.17,190,4.89,190,1.66a1.34,1.34,0,0,1,1.31-.87c1.4,0,2.71.35,4.1,0.35s2.71-.35,4-0.35c1,0,1.75,1.39,2.27,2l41.66,46.38a2.8,2.8,0,0,0,1.05,1c0.17,0,.26-0.26.26-1V12.67c0-11.44-9.7-8.13-9.7-11a0.85,0.85,0,0,1,1-.87c2.62,0,5.15.35,7.95,0.35,3,0,6.73-.35,8.82-0.35a0.76,0.76,0,0,1,.87.78c0,2.27-5.15.7-5.15,7.08V59.22c0,2.53-.09,3.75-0.79,3.75s-1.48-.44-3.32-2.45L206.75,18.26c-0.17-.18-1.22-1.66-1.83-1.66-0.35,0-.61.26-0.61,2V54.33c0,7.86,7.69,4.8,7.69,7.16a1,1,0,0,1-1,1.13c-2.1,0-4.54-.35-8.82-0.35-3.06,0-7.6.35-8.21,0.35-1.05,0-1.14-.53-1.14-1,0-3.06,7.68.79,7.68-11.45V18Z"/><path class="cls-4" d="M317.35,30.13c0.7,0,2.36-.35,2.36.79,0,1.84-4.46-.17-4.46,5.68V54.42c-9,2.88-11.35,8.82-26.9,8.82-19.3,0-31.27-12-31.27-31.36C257.08,13,271.23,0,289.75,0c15.11,0,19.48,5.94,21.92,5.94,1,0,1.31-1.57,2.28-1.57,1.22,0,.87,1.31,1,2l0.87,11.44c0,0.7-.09,1.57-1,1.57-2.27,0-6.2-16.86-26.81-16.86-15.73,0-23.59,13.28-23.59,27.69,0,15.47,8.91,30.23,25.77,30.23,7.94,0,18.17-3.93,18.17-11.35V35.55c0-4.11-7.6-2.27-7.6-4.46,0-1.13,1.22-1,2-1h14.59Z"/><path class="cls-4" d="M338.4,6.9c0-3.41,1.84-3.24,5-3.24,8.56,0,16.68,3.58,16.68,14.23,0,10.83-8.38,12.41-12.14,12.41-4.11,0-9.52.44-9.52-1.22V6.9ZM355.6,31c6.11-2.44,11-8.3,11-15.11,0-16.86-19.3-15.11-20.7-15.11-4.54,0-9.52.35-14.59,0.35a50.07,50.07,0,0,1-5.59-.35c-1.05,0-1.75.52-1.75,1,0,3,7.51-.61,7.51,7.78V54.07c0,6.64-6.37,5.42-6.37,7.6a0.9,0.9,0,0,0,.87,1c3.32,0,6.64-.35,10-0.35,7.25,0,9.26.35,10,.35s1.48,0.18,1.48-.7c0-3-9.08-.26-9.08-7.77V35.72c0-.87-0.52-2.45,2.27-2.45,9.78,0,8.47-.26,11.62,4.63L362,53.19c3.32,5,6.72,9.43,13.1,9.43,0.79,0,5.68,0,5.68-1.05,0-2.09-4.28,1.14-10.57-8.47Z"/><path class="cls-4" d="M376.3,6.29c-2.28-3.76-6.55-2.71-6.55-4.19A1.32,1.32,0,0,1,370.89.79c2.36,0,4,.35,10,0.35,2.88,0,5.24-.35,6.12-0.35,0.61,0,1.66.09,1.66,0.87,0,1.49-4.1,1.58-4.1,4.11a7.11,7.11,0,0,0,1.57,3.58L396.65,26.2c0.7,1.05,1.22,1.57,1.75,1.57s1-.61,1.66-1.74l9-14.59a8.24,8.24,0,0,0,1.83-4.8c0-4.28-6.55-2.45-6.55-4.54,0-1.13.87-1.31,1.84-1.31,2.09,0,4.28.35,6.38,0.35,2.53,0,5.07-.35,7.6-0.35a1.11,1.11,0,0,1,1,1c0,1-1.49,1.31-2.1,1.66-2.36,1.4-3.49,3.84-4.89,6l-12.23,19c-1.4,2.18-2.1,2.62-2.1,3.93v21.4c0,7.6,7.16,5.16,7.16,7.86,0,0.79-.79.87-2,0.87s-6.38-.35-9.61-0.35c-3.93,0-7.07.35-7.86,0.35s-1.31-.09-1.31-1.05c0-2.44,6.73-.17,6.73-6.37V34.06c0-1.66-1.31-3.41-2-4.45Z"/><path class="cls-4" d="M72.12,34.16c-1.13-2.57,1.14-9.65,3.1-14.44,1.8-4.42,1.85-7,.41-9.09S70.06,6.35,68,5.27C64.17,3.17,63.34,1,62,1.19c-1.86.31-3.82,3.67-3.82,3.67A36,36,0,0,0,46.84,3.28a34.22,34.22,0,0,0-11.3,1.58s-2-3.36-3.82-3.67c-1.33-.23-2.16,2-6,4.08-2,1.08-6.14,3.3-7.58,5.37s-1.39,4.67.42,9.09c2,4.79,4.22,11.87,3.09,14.44,0,0-12.72-.85-6.38,17.58,0,0,1.59,4.54,8.21,8.52a6.16,6.16,0,0,1,2.4,3.38L28.32,64A10.49,10.49,0,0,0,31,70.32c2.6,3,4.34,3.79,5.76,5.54,2.3,2.85,2.91,3.74,3.22,5.6L42.25,82s1,3.61,4.59,3.61A4.61,4.61,0,0,0,51.48,82l2.24-.49c0.31-1.85.92-2.74,3.23-5.6,1.42-1.75,3.15-2.58,5.75-5.54A10.5,10.5,0,0,0,65.41,64l2.48-.36a6.15,6.15,0,0,1,2.4-3.38c6.62-4,8.21-8.52,8.21-8.52C84.85,33.31,72.12,34.16,72.12,34.16ZM61,3.93a2.45,2.45,0,0,1,.73-0.55c0.41-.16.57,0.34,0.88,0.45l0.25,0.29a9.27,9.27,0,0,1,.86.63,4.75,4.75,0,0,1,.64.46,4.52,4.52,0,0,1,.7.46,3.28,3.28,0,0,1,.65.46c0.61,0.33,1.22.74,1.83,1.06a0.4,0.4,0,0,0,.32.19c0.46,0.28.92,0.53,1.39,0.84a1.88,1.88,0,0,1,.61.3,0.63,0.63,0,0,1,.31.25,1.06,1.06,0,0,1-.43.32,5.66,5.66,0,0,0-1.81,1.39,3,3,0,0,1-.33.47,6.31,6.31,0,0,1-.26.6,1.63,1.63,0,0,1-.14.51,0.25,0.25,0,0,1-.07.26c-0.06.08-.15,0-0.21,0-0.55-.44-0.92-1-1.46-1.5a0.63,0.63,0,0,0-.32-0.29,5.46,5.46,0,0,0-.72-0.65c-0.27-.35-0.69-0.62-1-1a6.89,6.89,0,0,1-1-.75,10.79,10.79,0,0,1-1.21-1.05c-0.3-.1-0.44-0.41-0.72-0.48a2.36,2.36,0,0,1-.41-0.56A2.86,2.86,0,0,1,61,3.93Zm-37.71,5a3.32,3.32,0,0,1,1.21-.71,5.85,5.85,0,0,0,.82-0.43A13.69,13.69,0,0,1,26.47,7a16.48,16.48,0,0,0,2.59-1.87A21.24,21.24,0,0,0,31.3,3.46a1.61,1.61,0,0,1,.64.22l0.69,0.71a5.17,5.17,0,0,1,.47.9,4.74,4.74,0,0,1,.09.86,0.74,0.74,0,0,0-.09.29,18.51,18.51,0,0,0-1.58,1.25A10.29,10.29,0,0,1,30,8.91c-0.23.42-.74,0.57-1,1-0.49.36-.8,0.84-1.28,1.25a14.24,14.24,0,0,1-1.36,1.39c-0.11,0-.15-0.13-0.19-0.19a3.25,3.25,0,0,0-.44-1.27,7,7,0,0,0-1.17-1.35c-0.42-.21-0.82-0.43-1.24-0.65A0.15,0.15,0,0,1,23.28,8.89ZM76.62,51.15s-1.68,3.87-7.74,8A6.37,6.37,0,0,0,66.79,62l-3,.55a11,11,0,0,1-2.32,6.29c-2.37,2.9-4.07,3.6-5.42,5.27-2.19,2.71-3.32,3.89-3.62,5.66l-2.14.47s-0.49,3.57-3.48,3.57-3.41-3.57-3.41-3.57l-2.14-.47C41,78,39.86,76.82,37.68,74.11c-1.35-1.67-3-2.36-5.42-5.27a11,11,0,0,1-2.32-6.29L27,62a6.31,6.31,0,0,0-2.09-2.86c-6.07-4.12-7.74-8-7.74-8C11,33.83,23.07,36.28,23.07,36.28c1.7-4.74-.26-10.56-2.11-15.12-1.72-4.19-2.27-7.21-1.6-8.36,0,0,.54,2.74,2.58,3.15s3.86,0.19,8.67-5.11C35.9,5,44.52,5.06,46.84,5.06S58,5.21,63.15,10.84c4.81,5.29,6.61,5.52,8.67,5.11S74.4,12.8,74.4,12.8c0.67,1.14.11,4.16-1.6,8.36C70.93,25.72,69,31.54,70.68,36.28,70.68,36.28,82.71,33.83,76.62,51.15Z"/><path class="cls-4" d="M93.59,38.07c-0.28-2.18-.72-4.28-1.17-6.38-0.31-1.09-.76-2.12-1.17-3.17a12.14,12.14,0,0,0-1.42-2.32,2.51,2.51,0,0,0-2.47-.74,1,1,0,0,1-.74.12,3.25,3.25,0,0,1,0-.89c0.11-4,.62-8.51-2.07-11.53a0.11,0.11,0,0,0-.18,0c-0.1.61-.23,1.26-0.33,1.89a15.94,15.94,0,0,1-.86,3c0,0.06-.1.21-0.21,0.16a0.34,0.34,0,0,1-.1-0.12,12.29,12.29,0,0,0-2.18-4.38,7,7,0,0,0-2.57-2,0.4,0.4,0,0,0-.31,0,0.63,0.63,0,0,0,.08.33,5,5,0,0,1,.76,1.85,8.61,8.61,0,0,1,.21,2,29.16,29.16,0,0,1-.86,7.63,13.19,13.19,0,0,0-.51,6.44,8.72,8.72,0,0,0,2.15,3.77,3.48,3.48,0,0,0,2.39.88,1.39,1.39,0,0,1,.37.77,14.92,14.92,0,0,1,.57,2.7,42,42,0,0,1,.51,7.46,38.91,38.91,0,0,1-2.3,12.32c-0.47,1.34-1.06,2.63-1.66,3.91a35.5,35.5,0,0,1-2.16,3.93c-0.65,1-1.38,2-2.13,3-0.4.52-.81,1-1.24,1.48-0.51.65-1.13,1.25-1.68,1.87-0.84.76-1.65,1.64-2.55,2.3-0.68.7-1.65,1.09-1.94,2.06a1.53,1.53,0,0,0,.26,1.6c0.64,0.84,1.73.86,2.37,1.67a0.35,0.35,0,0,1-.22.36c-1.05.75-2.06,1.49-3.15,2.12a37.28,37.28,0,0,1-7.57,3.52c-0.92.23-1.77,0.64-2.71,0.79a3.8,3.8,0,0,1-1,.23,5.16,5.16,0,0,1-1.11.27,11.42,11.42,0,0,1-1.71.27,2.18,2.18,0,0,1-.82.12,4.5,4.5,0,0,1-.92.15,14.77,14.77,0,0,1-2.41.16,23.18,23.18,0,0,1-2.94,0A34.88,34.88,0,0,1,40,87c-1.09-.18-2.1-0.5-3.16-0.7a2.8,2.8,0,0,0-.46-0.17,11.34,11.34,0,0,1-1.11-.33c-1.37-.45-2.71-1-4.05-1.58-0.61-.29-1.23-0.55-1.8-0.89-0.33-.22-0.68-0.35-1-0.57a9.35,9.35,0,0,1-1-.51A21.21,21.21,0,0,1,25.57,81a0.29,0.29,0,0,1-.21-0.12,0.63,0.63,0,0,1,.21-0.44,2.26,2.26,0,0,1,.68-0.49c0.23-.17.51-0.2,0.74-0.4a2.91,2.91,0,0,0,1-1.27,2.1,2.1,0,0,0-.93-2c-0.7-.56-1.44-1-2.14-1.61-0.51-.47-1-0.88-1.54-1.33A1.57,1.57,0,0,0,23,73a38.37,38.37,0,0,1-4.14-4.5A13.66,13.66,0,0,0,18,67.37a42.22,42.22,0,0,1-3.33-5.61,40.66,40.66,0,0,1-3.42-10.47c-0.16-1.18-.38-2.38-0.47-3.6a4.91,4.91,0,0,1-.1-1.18,2.53,2.53,0,0,1,0-.7c0-.29,0-0.62,0-0.88,0-.82,0-1.69.06-2.51a19.88,19.88,0,0,1,.19-2.32A16.74,16.74,0,0,1,11,38.31,0.75,0.75,0,0,0,11.11,38c0.08-.19,0-0.42.1-0.6a3.68,3.68,0,0,1,1.34-1.1,8.34,8.34,0,0,0,2.1-2,6.75,6.75,0,0,0,.68-1,7.76,7.76,0,0,0,.7-2.57c0.27-2.28-.56-4.31-1.09-6.39a31.31,31.31,0,0,1-.9-4.42C13.91,19,13.91,18,13.84,17a11.86,11.86,0,0,1,.41-2.61,4.72,4.72,0,0,0,.48-1.09,0.13,0.13,0,0,0-.15-0.1,3.19,3.19,0,0,0-1.23.73,10.93,10.93,0,0,0-3.37,6L9.9,20a0.19,0.19,0,0,1-.19-0.1,16.93,16.93,0,0,1-1.28-4c-0.1-.24-0.1-0.56-0.22-0.82a0.16,0.16,0,0,0-.16,0,10.93,10.93,0,0,0-.72,1.06,11.11,11.11,0,0,0-1,3.21A41.9,41.9,0,0,0,6.52,27a13.12,13.12,0,0,1,.1,2.86A3.33,3.33,0,0,1,5,32.61a3.31,3.31,0,0,1-1.28-.12,2.35,2.35,0,0,0-1.13,0,2.33,2.33,0,0,0-1.26,1A5,5,0,0,0,.8,35.67a64.72,64.72,0,0,0-.8,8.5A60.43,60.43,0,0,0,1.07,54.52c0.28,1.25.59,2.5,1,3.72a39,39,0,0,0,1.27,3.95,69.72,69.72,0,0,0,3,6.44,62.49,62.49,0,0,0,4.63,6.93c0.87,1.07,1.79,2.18,2.75,3.17a25.12,25.12,0,0,0,1.86,1.93,27.62,27.62,0,0,0,2.14,1.88c0.74,0.67,1.56,1.13,2.28,1.85a0.4,0.4,0,0,1,0,.37,7,7,0,0,0-.29.66,3.44,3.44,0,0,0-.18,3.19A5.28,5.28,0,0,0,20.59,90c0.31,0.22.6,0.47,0.88,0.71a4.48,4.48,0,0,1,.89.62,10.8,10.8,0,0,1,1.21.64c0.33,0.25.7,0.32,1.05,0.55,0.51,0.17.92,0.54,1.44,0.72a1.43,1.43,0,0,0,.49.22c0.23,0.15.5,0.21,0.73,0.33a52.27,52.27,0,0,0,11.5,3.49A45.39,45.39,0,0,0,51,97.86a48.6,48.6,0,0,0,6.29-.93c0.91-.17,1.75-0.43,2.63-0.62C60.47,96.13,61,96,61.56,95.8c0.29,0,.52-0.23.82-0.25,0.53-.22,1.09-0.34,1.6-0.57a7.55,7.55,0,0,0,1.71-.7,0.37,0.37,0,0,0,.21,0,2.81,2.81,0,0,0,.76-0.31,15.62,15.62,0,0,0,2-1,4,4,0,0,0,.94-0.44A6.1,6.1,0,0,0,70.53,92c0.43-.2.85-0.51,1.3-0.7s0.83-.43,1.17-0.74a4.21,4.21,0,0,1,.58-0.33c0.15-.12.24-0.12,0.61-0.36a1.88,1.88,0,0,0,.23-0.2,4,4,0,0,0,.74-0.59,8.5,8.5,0,0,0,1.29-1.38,3,3,0,0,0,.43-2.55,3,3,0,0,0-.47-1.14c-0.17-.39-0.68-0.8-0.31-1.24a3.57,3.57,0,0,1,.34-0.24c0.58-.51,1.24-1,1.79-1.54s0.88-.74,1.3-1.19c0.19-.31.55-0.47,0.76-0.78a0.67,0.67,0,0,1,.29-0.29c0.51-.69,1.15-1.2,1.66-1.88a56.7,56.7,0,0,0,3.66-5,38.59,38.59,0,0,0,2-3.41c0.51-.88.94-1.79,1.35-2.69a51.4,51.4,0,0,0,3.87-12,59.42,59.42,0,0,0,.8-6.77A44.31,44.31,0,0,0,93.59,38.07ZM80.77,28.5a2.36,2.36,0,0,0-1.06,2l0,0a4.12,4.12,0,0,1-.54-1.36,7,7,0,0,1,.11-3.57,40.44,40.44,0,0,0,1.27-8.41c0-.06.11-0.15,0.19-0.06a12.3,12.3,0,0,1,1.38,4c0.11,0.43.18,0.89,0.31,1.32a0.21,0.21,0,0,0,.11.12,0.3,0.3,0,0,0,.22-0.18,30.23,30.23,0,0,0,1.79-3.54,0.12,0.12,0,0,1,.15,0,2.88,2.88,0,0,1,.22.95A16.62,16.62,0,0,0,85,21.42,8.92,8.92,0,0,0,84.91,23c0,1-.29,2-0.25,3.08a0.88,0.88,0,0,1-.12.5A40.4,40.4,0,0,1,80.77,28.5Zm-74,5a5.84,5.84,0,0,0,1.73-3,14.88,14.88,0,0,0,.1-1.69,28.62,28.62,0,0,0-.45-3.56,17.32,17.32,0,0,1-.06-4.28,0.2,0.2,0,0,1,.12-0.16,0.39,0.39,0,0,1,.27.28,26.86,26.86,0,0,0,1.79,3.13,0.35,0.35,0,0,0,.29.17,1.19,1.19,0,0,0,.18-0.62,20.6,20.6,0,0,1,1-4.21,2.34,2.34,0,0,1,.37-0.6,0.13,0.13,0,0,1,.14.13c0,0.41,0,.82.13,1.23s0.13,1,.23,1.48a31.63,31.63,0,0,0,.66,3.14,34.42,34.42,0,0,1,1.09,4.38,8.93,8.93,0,0,1-.52,3,6.79,6.79,0,0,1-2.92,3.15,6.79,6.79,0,0,1-1.62-.6C8.54,34.48,7.77,34.18,7,33.82a1.11,1.11,0,0,1-.29-0.24Zm13.9,49.23a3.76,3.76,0,0,1-1.16-.81A14.81,14.81,0,0,1,18,80.56a24.81,24.81,0,0,1-2.43-2.22,50.7,50.7,0,0,1-5.68-7,58.4,58.4,0,0,1-3.19-5.49C6.09,64.39,5.41,63,4.87,61.51A49.63,49.63,0,0,1,1.75,42.35a52.87,52.87,0,0,1,.78-7A1.1,1.1,0,0,1,3,34.5c0.95-.39,1.69.41,2.49,0.69a23.22,23.22,0,0,0,3.39,1.27,1.26,1.26,0,0,1,.58.45,11.79,11.79,0,0,1-.17,1.65C9.13,40.24,9,42,9,43.7a33.57,33.57,0,0,0,.18,4.48,28.21,28.21,0,0,0,.54,3.76,33.12,33.12,0,0,0,1.5,5.68,37.16,37.16,0,0,0,2.92,6.67,38,38,0,0,0,2.59,4.17A44.5,44.5,0,0,0,20.53,73c0.21,0.34.59,0.5,0.8,0.83s0.53,0.51.82,0.72c0.49,0.45,1,1,1.54,1.34s1.22,1,1.83,1.44a1.64,1.64,0,0,1,.3.58c0,0.45-.49.44-0.76,0.66a3.82,3.82,0,0,0-1.14.95c-0.4.31-.77-0.17-1.22,0-0.74.21-.88,1-1.21,1.58a4.25,4.25,0,0,0-.33.84A1.52,1.52,0,0,1,20.67,82.68Zm53.74,4.85c-0.78.6-1.61,1.15-2.43,1.67s-1.87,1-2.78,1.58c-0.74.35-1.48,0.74-2.24,1.09a0.84,0.84,0,0,1-.39.17c-0.86.41-1.75,0.72-2.63,1.07-0.57.24-1.21,0.41-1.78,0.65a2,2,0,0,0-.6.21,2,2,0,0,0-.68.18c-1.73.43-3.42,0.93-5.18,1.27a14.47,14.47,0,0,1-1.89.29,2,2,0,0,1-.77.1,14.37,14.37,0,0,1-2.2.29c-1,0-1.85.15-2.84,0.17H47.66l-2,0c-0.17,0-.34,0-0.5,0a44.61,44.61,0,0,1-5.92-.64A52.24,52.24,0,0,1,33,94a43.51,43.51,0,0,1-11.09-5.12,0.73,0.73,0,0,1-.38-0.4,1.54,1.54,0,0,1-.52-1,2.58,2.58,0,0,1,.08-0.79c0.06-.29.23-0.53,0.31-0.81s0.18-.32.27-0.59c0.34-.7.53-1.47,0.94-2.14a3.18,3.18,0,0,1,.31-0.78,1.24,1.24,0,0,1,.43-0.6,0.69,0.69,0,0,1,.68.25,1.56,1.56,0,0,0,.31.16c0.93,0.64,1.91,1.22,2.87,1.79a4.34,4.34,0,0,1,.48.27,0.74,0.74,0,0,1,.27.14s0.53,0.29.8,0.39a45,45,0,0,0,4.4,2c0.27,0,.47.2,0.72,0.24a5,5,0,0,1,.72.3,11.18,11.18,0,0,1,1.52.43c0.41,0.08.82,0.2,1.21,0.29a3.08,3.08,0,0,0,.37.14c1.07,0.16,2.08.45,3.14,0.58a32.5,32.5,0,0,0,4.24.48c1,0.1,2.06,0,3.09.08a1.6,1.6,0,0,1,.68,0,4.54,4.54,0,0,1,.86-0.08,4.49,4.49,0,0,0,.95-0.08,40.53,40.53,0,0,0,8.76-1.76c0.82-.23,1.58-0.61,2.43-0.83,0.9-.41,1.85-0.78,2.74-1.25a6.83,6.83,0,0,0,1.09-.56,16.46,16.46,0,0,0,1.83-1,1.65,1.65,0,0,1,.61-0.35,6.85,6.85,0,0,0,1.42-.94A5.85,5.85,0,0,0,70.3,82a9.31,9.31,0,0,0,.82-0.62,5.2,5.2,0,0,0,1.15-.81,0.47,0.47,0,0,1,.47.31L73,81.25c0.66,1.46,1.44,2.86,2,4.34A1.84,1.84,0,0,1,74.42,87.53ZM91.78,51.39a52.74,52.74,0,0,1-1.67,7.46c-0.39,1.26-.85,2.5-1.3,3.72a0.19,0.19,0,0,0-.14.13l0.07,0a45.79,45.79,0,0,1-4,7.79,52.9,52.9,0,0,1-3.56,4.85c-0.84.95-1.7,2-2.62,2.9-0.29.3-.62,0.59-0.88,0.92-0.78.7-1.58,1.47-2.44,2.13A0.25,0.25,0,0,1,75,81.19a22.12,22.12,0,0,0-1.4-2.67,1.14,1.14,0,0,0-1-.29,1.1,1.1,0,0,1-.66.15,6.3,6.3,0,0,0-2-1.27,0.47,0.47,0,0,1-.17-0.39A0.82,0.82,0,0,1,70,76.3a2.92,2.92,0,0,1,.72-0.64c0.35-.29.66-0.62,1-0.93l0.12-.06a9.06,9.06,0,0,0,1.4-1.38l0.28-.22a41.93,41.93,0,0,0,4.16-5,42.61,42.61,0,0,0,3.17-5.29c0.31-.7.63-1.36,0.91-2.07s0.54-1.34.84-2A25.27,25.27,0,0,0,83.42,56a36.53,36.53,0,0,0,1.26-5.85c0-.41.16-0.75,0.14-1.14a46,46,0,0,0,.26-5.84A47.3,47.3,0,0,0,84,35c-0.41-1.32-.88-2.61-1.42-3.88a1.65,1.65,0,0,1-.23-1.32c0.25-.64,1-0.7,1.5-1a24.51,24.51,0,0,1,3.85-1.61,1.46,1.46,0,0,1,1.44.82,23.91,23.91,0,0,1,1.53,3.85c0.08,0.49.3,0.92,0.34,1.44a53.29,53.29,0,0,1,1,6.37A47.61,47.61,0,0,1,91.78,51.39Z"/><path class="cls-4" d="M7.92,44.95c0.27,0.11.13,0.45,0.15,0.7a2.28,2.28,0,0,0-.43.31C7,46.19,6.37,46.43,5.75,46.7c0,0-.12.12-0.06,0.18a7.18,7.18,0,0,0,1.07.39A13.6,13.6,0,0,1,8,47.73a0.5,0.5,0,0,1,0,.54c-0.5.64-1.44,0.43-2.16,0.64l-2,.35a0.28,0.28,0,0,1-.2-0.16,0.63,0.63,0,0,1,.14-0.66c0.72-.17,1.52-0.15,2.21-0.38a0.1,0.1,0,0,0,.06-0.13,10.47,10.47,0,0,0-1.59-.61A5,5,0,0,1,3.82,47a0.34,0.34,0,0,1-.08-0.33,3.18,3.18,0,0,1,.45-0.27A19.42,19.42,0,0,0,6,45.73l0.07-.12a1,1,0,0,0-.54-0.19C5,45.36,4.45,45.28,3.91,45.2A0.28,0.28,0,0,1,3.69,45a1.56,1.56,0,0,1,0-.56,1.21,1.21,0,0,1,.64,0C5.56,44.58,6.72,44.79,7.92,44.95Z"/><path class="cls-4" d="M8.4,52.67l-2.16-.49a21.26,21.26,0,0,0-2.16-.41,0.93,0.93,0,0,0,0,.65l0.12,0.12a1.18,1.18,0,0,1,.82.37c0.07,0.52.19,1,.23,1.55-0.14.35-.7,0.35-0.72,0.76,0.06,0.21-.06.57,0.23,0.59,0.45-.22.84-0.54,1.29-0.76,0.19-.21.48-0.25,0.67-0.44a1.82,1.82,0,0,0,.5-0.4,3.46,3.46,0,0,1,.35-0.27,4.91,4.91,0,0,0,.64-0.43,0.81,0.81,0,0,0,.37-0.31A0.55,0.55,0,0,0,8.4,52.67ZM6,54a1.56,1.56,0,0,1-.2-1A0.5,0.5,0,0,1,6.28,53a6,6,0,0,1,1,.22c0.06,0,0,.1,0,0.14A2.42,2.42,0,0,1,6,54Z"/><path class="cls-4" d="M9.82,57.63a0.77,0.77,0,0,1,0,.59,6.75,6.75,0,0,0-.78,1.05,0.21,0.21,0,0,0,.18.13,10.69,10.69,0,0,1,1.21.33,1.08,1.08,0,0,1,.23.82,0.83,0.83,0,0,1-.47,0A12.05,12.05,0,0,0,8.5,60.1a1.47,1.47,0,0,0-.53.51,15.37,15.37,0,0,1-1.21,1.44,0.47,0.47,0,0,1-.2-0.29,0.74,0.74,0,0,1-.07-0.61c0.27-.31.5-0.64,0.8-0.93a0.45,0.45,0,0,0,.18-0.43,3.62,3.62,0,0,0-1-.33,1.85,1.85,0,0,1-.66-0.2,1.53,1.53,0,0,1-.23-0.76,0.38,0.38,0,0,1,.33,0C6.55,58.72,7.25,58.85,8,59a0.86,0.86,0,0,0,.5-0.39c0.41-.45.7-0.93,1.15-1.34A0.48,0.48,0,0,1,9.82,57.63Z"/><path class="cls-4" d="M11.92,63.41a0.31,0.31,0,0,1-.17.4L11.38,64c-0.22.15-.43,0.21-0.62,0.33s-0.35.15-.48,0.25l-1.89.91a0.21,0.21,0,0,1-.3,0,0.75,0.75,0,0,1-.2-0.62c0.33-.21.72-0.33,1.05-0.52,0.53-.2,1-0.53,1.5-0.72A4.76,4.76,0,0,1,11.61,63C11.82,63,11.84,63.28,11.92,63.41Z"/><path class="cls-4" d="M14,67.05a0.75,0.75,0,0,1-.25.52c-0.43.51-.8,1-1.19,1.58,0,0-.08.13,0,0.18a2.93,2.93,0,0,0,.78-0.1c0.53-.12,1-0.28,1.57-0.38a0.83,0.83,0,0,1,.53.55A1.17,1.17,0,0,1,15,70a0.44,0.44,0,0,0-.16.22,12.83,12.83,0,0,0-1.24,1l-0.18.21-1.08.94a0.34,0.34,0,0,1-.3-0.23,0.4,0.4,0,0,1-.11-0.41,13.54,13.54,0,0,1,1.36-1.2A2.25,2.25,0,0,0,13.67,70a0.57,0.57,0,0,0-.35,0c-0.76.12-1.47,0.37-2.2,0.47a0.35,0.35,0,0,1-.23-0.23l0-.14c0.45-.7,1.07-1.29,1.46-2,0,0,0-.1-0.08-0.08a22.23,22.23,0,0,0-2.08.87,0.29,0.29,0,0,1-.28-0.09,0.65,0.65,0,0,1-.19-0.53c0.66-.33,1.32-0.6,2-0.91s1.17-.56,1.77-0.79A0.64,0.64,0,0,1,14,67.05Z"/><path class="cls-4" d="M17.74,72.44c-0.81.31-1.64,0.62-2.41,1a17.46,17.46,0,0,0-1.69.7,0.57,0.57,0,0,0,.24.44c0.31,0.39.68-.1,1-0.06a5.28,5.28,0,0,1,1.08,1,0.76,0.76,0,0,1-.12.87,0.7,0.7,0,0,0,.37.68,0.16,0.16,0,0,0,.21,0,2.23,2.23,0,0,0,.31-0.76,3.26,3.26,0,0,0,.5-0.94,1.18,1.18,0,0,0,.22-0.44c0.28-.53.52-1.06,0.77-1.58A0.63,0.63,0,0,0,18.34,73,1,1,0,0,0,17.74,72.44Zm-1.19,2.48A0.9,0.9,0,0,1,16,74.53a0.5,0.5,0,0,1-.17-0.37,3.33,3.33,0,0,1,.91-0.46,0.41,0.41,0,0,1,.39,0A4.29,4.29,0,0,1,16.55,74.92Z"/><path class="cls-4" d="M88.69,32.3A0.36,0.36,0,0,0,88.48,32c-0.43.06-.81,0.29-1.25,0.31-0.05,0-.07-0.06-0.05-0.12,0.25-.47.66-0.89,1-1.35A1.27,1.27,0,0,0,88,30.11c0-.17-0.21-0.15-0.29,0L86.9,31.21a0.49,0.49,0,0,1-.35.27A7.23,7.23,0,0,0,85.91,31a1.38,1.38,0,0,0-1.28.22c-0.86.58-.28,1.74-0.1,2.47a0.42,0.42,0,0,0,.23.29c0.59-.08,1.09-0.36,1.64-0.47s1.4-.43,2.08-0.68l0.24-.15A0.51,0.51,0,0,0,88.69,32.3Zm-3.47.7C85,33,85,32.65,84.94,32.44A0.46,0.46,0,0,1,85.21,32a0.56,0.56,0,0,1,.62-0.11,0.62,0.62,0,0,1,.33.35,0.44,0.44,0,0,1,.06.35A1.93,1.93,0,0,1,85.22,33Z"/><path class="cls-4" d="M89.49,35a1.89,1.89,0,0,1,.19,2,1.78,1.78,0,0,1-1.22.82c-0.82.17-1.62,0.4-2.47,0.53a0.2,0.2,0,0,1-.21-0.12,0.94,0.94,0,0,1-.09-0.58,1.91,1.91,0,0,1,.76-0.23l1.89-.41A0.94,0.94,0,0,0,89,36.43a1,1,0,0,0-.29-1.09,1.26,1.26,0,0,0-1-.08c-0.82.14-1.6,0.39-2.43,0.46A0.84,0.84,0,0,1,85.17,35a2.8,2.8,0,0,1,.76-0.25c0.54-.1,1.07-0.24,1.62-0.35A1.73,1.73,0,0,1,89.49,35Z"/><path class="cls-4" d="M86.57,39.23a1.17,1.17,0,0,0,.23.62A6.38,6.38,0,0,0,88,39.73c0.72-.08,1.42-0.25,2.14-0.28a0.22,0.22,0,0,1,.21.2,0.87,0.87,0,0,1,0,.5,2.45,2.45,0,0,1-1,.24c-0.7.05-1.38,0.21-2.08,0.29a0.53,0.53,0,0,0-.43.19,1.25,1.25,0,0,1-.07.71,0.85,0.85,0,0,1-.37.07,0.22,0.22,0,0,1-.24-0.15c-0.1-.72-0.23-1.43-0.27-2.19a0.32,0.32,0,0,1,.33-0.21C86.38,39.11,86.53,39.09,86.57,39.23Z"/><path class="cls-4" d="M90.6,42.18a10,10,0,0,1,.17,1.52,1.71,1.71,0,0,1,0,.55c0,0.11,0,.18-0.29.21-1.31.08-2.61,0.23-3.93,0.22a0.46,0.46,0,0,1-.13-0.39l-0.1-1.51a0.27,0.27,0,0,1,.16-0.31,0.63,0.63,0,0,1,.48,0,4.64,4.64,0,0,1,.16,1.21,0.94,0.94,0,0,0,.87.06,0.44,0.44,0,0,0,.18-0.48l0-.82a0.51,0.51,0,0,1,.45-0.14,0.26,0.26,0,0,1,.23.14l0.11,1.11c0.16,0.29.53,0.08,0.8,0.12a0.33,0.33,0,0,0,.27-0.2l0-1.12a0.28,0.28,0,0,1,.25-0.2A1.2,1.2,0,0,1,90.6,42.18Z"/><path class="cls-4" d="M90.54,46.23a1.13,1.13,0,0,0-.49-0.38,1.28,1.28,0,0,0-1.23.11,0.9,0.9,0,0,1-.46.37A1.18,1.18,0,0,0,87.17,46a1.23,1.23,0,0,0-.74.91,10.24,10.24,0,0,0-.07,1.56,0.27,0.27,0,0,0,.19.16c1.32,0.07,2.62.17,4,.19a0.26,0.26,0,0,0,.21-0.2A4.46,4.46,0,0,0,90.54,46.23Zm-3.29,1.54a0.26,0.26,0,0,1-.13-0.19,0.83,0.83,0,0,1,.27-0.68,0.51,0.51,0,0,1,.68.25,1,1,0,0,1,0,.54A0.94,0.94,0,0,1,87.25,47.77ZM90,47.82a0.81,0.81,0,0,1-.54.08c-0.17-.08-0.47,0-0.52-0.21a0.92,0.92,0,0,1,.33-1,0.62,0.62,0,0,1,.62,0l0.09,0.13A1.79,1.79,0,0,1,90,47.82Z"/><path class="cls-4" d="M86.82,50a0.6,0.6,0,0,1,0,.47,3,3,0,0,0-.06.83,1.1,1.1,0,0,0,.8.18,0.19,0.19,0,0,0,.19-0.16A10.39,10.39,0,0,1,88,50.18a0.74,0.74,0,0,1,.59,0,0.38,0.38,0,0,1,.06.37,2.33,2.33,0,0,0,0,1,1.17,1.17,0,0,0,.92.15A1.09,1.09,0,0,0,89.7,51a0.8,0.8,0,0,1,.23-0.68,1.35,1.35,0,0,1,.51.08,0.59,0.59,0,0,1,0,.45,10.51,10.51,0,0,1-.26,1.61,0.32,0.32,0,0,1-.27.17c-1.28-.14-2.57-0.31-3.83-0.48A0.19,0.19,0,0,1,85.95,52a19.24,19.24,0,0,1,.23-2A0.69,0.69,0,0,1,86.82,50Z"/><path class="cls-4" d="M89.37,54.46a2.81,2.81,0,0,0-1.13-.88A2.22,2.22,0,0,0,85.8,54a6.3,6.3,0,0,0-.78,2,0.37,0.37,0,0,0,0,.33c1.25,0.4,2.57.67,3.83,1a0.32,0.32,0,0,0,.35-0.06C89.43,56.45,89.88,55.4,89.37,54.46Zm-0.66,1.85a0.3,0.3,0,0,1-.34.07C87.61,56.2,86.8,56,86,55.79a0.7,0.7,0,0,1,0-.71,1.25,1.25,0,0,1,1-.79,1.74,1.74,0,0,1,1.68.88A1.83,1.83,0,0,1,88.72,56.31Z"/><path class="cls-4" d="M84.92,59.33a0.34,0.34,0,0,1,.07.33,0.82,0.82,0,0,0-.48.65,0.47,0.47,0,0,0,.1.34,0.42,0.42,0,0,0,.37.14,1.86,1.86,0,0,0,.88-0.69,1.31,1.31,0,0,1,1.05-.33,1.46,1.46,0,0,1,1.1.8,1.76,1.76,0,0,1-.38,1.77,1,1,0,0,0-.55.35c-0.12.06-.19-0.05-0.25-0.15A0.88,0.88,0,0,1,86.65,62a1.13,1.13,0,0,0,.62-0.74A0.5,0.5,0,0,0,87,60.73a0.49,0.49,0,0,0-.46,0,4.27,4.27,0,0,1-1,.76,0.7,0.7,0,0,1-.64.21A1.62,1.62,0,0,1,84,61.15a1.51,1.51,0,0,1,0-1.56A1.33,1.33,0,0,1,84.61,59C84.8,59,84.82,59.23,84.92,59.33Z"/><path class="cls-4" d="M83,62.45c1.19,0.53,2.36,1.08,3.52,1.61a0.37,0.37,0,0,1-.06.46,3.37,3.37,0,0,0-.33.22c-1.13-.43-2.22-0.93-3.33-1.4-0.13-.14-0.52-0.16-0.38-0.45a1,1,0,0,1,.33-0.51Z"/><path class="cls-4" d="M85.68,66.16c-0.47.05-.93,0.08-1.38,0.15a0.68,0.68,0,0,1-.52-0.05,2.63,2.63,0,0,0-.21-1,1.34,1.34,0,0,0-1.17-.64A1.86,1.86,0,0,0,81,65.86a2.61,2.61,0,0,0-.35.78c0.68,0.55,1.5.84,2.22,1.35,0.42,0.19.82,0.5,1.27,0.7l0.35-.1,0.19-.32A0.2,0.2,0,0,0,84.63,68c-0.31-.23-0.67-0.37-1-0.62a0.1,0.1,0,0,1,0-.16,11.81,11.81,0,0,1,1.4-.19,0.45,0.45,0,0,1,.35-0.2,1.42,1.42,0,0,0,.36-0.6C85.8,66.17,85.71,66.17,85.68,66.16Zm-2.94.64A1.76,1.76,0,0,1,82,66.49a0.67,0.67,0,0,1-.29-0.31,0.8,0.8,0,0,1,.45-0.54,0.6,0.6,0,0,1,.64.13,0.63,0.63,0,0,1,.18.52A0.74,0.74,0,0,1,82.73,66.8Z"/><path class="cls-4" d="M80.38,67.94v0.12l-0.61,1a0.61,0.61,0,0,0,.3.39,0.75,0.75,0,0,0,.5.24c0.33-.27.46-0.68,0.78-1a0.6,0.6,0,0,1,.53.29v0.15l-0.61.94a1.19,1.19,0,0,0,.66.64,0.22,0.22,0,0,0,.19,0c0.3-.3.5-0.67,0.76-1a0.63,0.63,0,0,1,.53.31,1.72,1.72,0,0,1-.43.74c-0.19.24-.31,0.51-0.5,0.74a0.83,0.83,0,0,1-.43.31,13.49,13.49,0,0,1-1.4-1C80,70.42,79.35,70,78.72,69.48c-0.15-.18.08-0.36,0.16-0.52,0.25-.41.6-0.8,0.84-1.21a0.29,0.29,0,0,1,.33-0.12A0.89,0.89,0,0,1,80.38,67.94Z"/><path class="cls-4" d="M77.87,70.51c0.49,0.41.93,0.86,1.44,1.28a2.24,2.24,0,0,1,1.11,2A2.14,2.14,0,0,1,79.61,75a1.43,1.43,0,0,1-1.5.14,10.18,10.18,0,0,1-1.23-.89c-0.41-.43-0.93-0.78-1.32-1.27A0.87,0.87,0,0,1,76,72.44H76.1c0.29,0.25.62,0.49,0.89,0.76l1.32,1.13a0.77,0.77,0,0,0,.7,0,0.89,0.89,0,0,0,.56-0.64,1.06,1.06,0,0,0-.5-1c-0.58-.56-1.23-1.09-1.79-1.67a1.2,1.2,0,0,1,.28-0.47A0.29,0.29,0,0,1,77.87,70.51Z"/><path class="cls-4" d="M75.69,77.09a0.47,0.47,0,0,1-.17-0.37,3.9,3.9,0,0,0,.7-1,1.27,1.27,0,0,0-.18-1,2.24,2.24,0,0,0-.62-0.58,1.22,1.22,0,0,0-1.09,0,0.72,0.72,0,0,0-.19.14,10.23,10.23,0,0,0-1.11,1,0.25,0.25,0,0,0,0,.25c1,1,1.85,1.91,2.82,2.86a0.2,0.2,0,0,0,.29,0A1.32,1.32,0,0,0,76.51,78,6,6,0,0,0,75.69,77.09ZM75.21,76a0.37,0.37,0,0,1-.35.16,3.09,3.09,0,0,1-.68-0.71,0.18,0.18,0,0,1,0-.21A0.84,0.84,0,0,1,75,74.91a1,1,0,0,1,.35.41A0.86,0.86,0,0,1,75.21,76Z"/><path class="cls-4" d="M68,89.75L65.13,87a0.85,0.85,0,0,0-.49-0.32,0.86,0.86,0,0,0-.66.5c0,0.41,0,.83.08,1.21,0.05,1.05.14,2.09,0.19,3.14l0.05,0.08a0.5,0.5,0,0,0,.46-0.19A0.44,0.44,0,0,0,65,91.31a2.63,2.63,0,0,1,.08-0.89,8.82,8.82,0,0,1,1.33-.67c0.36-.18.56,0.28,0.8,0.45A0.8,0.8,0,0,0,67.88,90,0.22,0.22,0,0,1,68,89.85,0.63,0.63,0,0,0,68,89.75Zm-2.91-.23c-0.08,0-.09-0.08-0.11-0.15a9.22,9.22,0,0,1-.09-1.1A0.14,0.14,0,0,1,65,88.11a4.56,4.56,0,0,1,.92.81,0.25,0.25,0,0,1,0,.23A2.2,2.2,0,0,1,65.06,89.52Z"/><path class="cls-4" d="M61.48,88.44c0.47,1.24.95,2.47,1.43,3.7a0.15,0.15,0,0,1-.12.17,2.84,2.84,0,0,0-.43.21,0.23,0.23,0,0,1-.25-0.17c-0.45-1.25-1-2.47-1.45-3.72a0.78,0.78,0,0,1,.6-0.39A0.26,0.26,0,0,1,61.48,88.44Z"/><path class="cls-4" d="M30,89a1.43,1.43,0,0,0,.65-1.12A1.37,1.37,0,0,0,30,86.78a10.27,10.27,0,0,0-1.26-.64,0.22,0.22,0,0,0-.26,0c-0.53,1.09-1,2.21-1.6,3.28a1,1,0,0,0-.2.46,0.79,0.79,0,0,0,.61.31,3.33,3.33,0,0,0,.5-0.87,0.54,0.54,0,0,1,.28-0.28,0.13,0.13,0,0,1,.07.15,5.49,5.49,0,0,1,.23,1.29,1,1,0,0,0,.79.69,0.09,0.09,0,0,0,.08-0.07,13.8,13.8,0,0,0-.21-1.53c0-.16-0.1-0.37.1-0.47A1.62,1.62,0,0,0,30,89Zm-1.29-.62a0.27,0.27,0,0,1-.19-0.14,2.18,2.18,0,0,1,.39-0.9,0.47,0.47,0,0,1,.3-0.17,0.88,0.88,0,0,1,.52.53,0.7,0.7,0,0,1-.22.61A0.68,0.68,0,0,1,28.71,88.33Z"/><path class="cls-4" d="M59.23,89.19a0.55,0.55,0,0,1,.06.45,3.56,3.56,0,0,1-.59.28,0.48,0.48,0,0,0,0,.4c0.3,1,.65,2,0.9,3a0.47,0.47,0,0,1-.46.22,0.25,0.25,0,0,1-.24,0l-0.13-.2c-0.32-1-.65-2.05-1-3.08a1.32,1.32,0,0,0-.72,0c-0.1,0-.13-0.12-0.16-0.17a0.48,0.48,0,0,1,0-.43c0.42-.21.89-0.29,1.33-0.46L59,89A0.22,0.22,0,0,1,59.23,89.19Z"/><path class="cls-4" d="M34.27,88.68a0.54,0.54,0,0,1-.1.56,0.22,0.22,0,0,1-.24.05C33.6,89.21,33.31,89,33,89a0.87,0.87,0,0,0-.48.8,1.07,1.07,0,0,0,.72.45,0.84,0.84,0,0,1,.47.26,0.55,0.55,0,0,1-.28.51c-0.31,0-.54-0.22-0.85-0.23a0.49,0.49,0,0,0-.37-0.05,2.1,2.1,0,0,0-.35.82,0.82,0.82,0,0,0,.66.4,1.75,1.75,0,0,1,.57.3,0.67,0.67,0,0,1-.24.55,3,3,0,0,1-.61-0.16,0.37,0.37,0,0,1-.31-0.13,7.37,7.37,0,0,1-1.07-.44,0.28,0.28,0,0,1,0-.28,11.61,11.61,0,0,0,.44-1.22,5.28,5.28,0,0,0,.4-1c0.09-.26.2-0.54,0.29-0.78a1.68,1.68,0,0,1,.18-0.48c0.08-.1,0-0.29.21-0.3C33,88.17,33.63,88.45,34.27,88.68Z"/><path class="cls-4" d="M55.6,90.22c0.17,1.33.39,2.66,0.56,4a0.61,0.61,0,0,1-.61.23,1.23,1.23,0,0,1-.7-0.54c-0.62-.63-1.15-1.3-1.79-1.85A0.13,0.13,0,0,0,53,92l-0.07.08c0,0.88.22,1.68,0.28,2.54a0.42,0.42,0,0,1-.31.21,0.72,0.72,0,0,1-.45-0.06,13.92,13.92,0,0,1-.24-1.58c-0.1-.86-0.25-1.68-0.34-2.52A0.2,0.2,0,0,1,52,90.51a0.78,0.78,0,0,1,.68,0c0.64,0.67,1.29,1.32,1.88,2L55,92.86a0.09,0.09,0,0,0,.1-0.1,12.82,12.82,0,0,0-.21-1.6,0.92,0.92,0,0,1,0-.26,1.47,1.47,0,0,1,0-.76C55.06,90.09,55.5,89.86,55.6,90.22Z"/><path class="cls-4" d="M36.06,89.36c0.13,0.21,0,.48.15,0.7a2.32,2.32,0,0,0,0,.82,10.86,10.86,0,0,0,.11,1.34,0.2,0.2,0,0,0,.1.08,0.64,0.64,0,0,0,.27-0.3,6.47,6.47,0,0,0,.71-1c0.29-.27.44-0.65,0.7-0.92a0.79,0.79,0,0,1,.7.06,0.31,0.31,0,0,1-.07.35c-0.63.94-1.33,1.87-1.94,2.83-0.24.21-.34,0.74-0.78,0.57a0.45,0.45,0,0,1-.42-0.32c-0.08-.86-0.13-1.75-0.21-2.6-0.08-.49,0-1-0.13-1.5a0.35,0.35,0,0,1,.07-0.27A1.63,1.63,0,0,1,36.06,89.36Z"/><path class="cls-4" d="M42.25,90.56a0.77,0.77,0,0,1,0,.47c0,0.05,0,.19-0.16.17a9.9,9.9,0,0,0-1.21-.05,1.37,1.37,0,0,0-.19.86,0.37,0.37,0,0,0,.33.19,5.31,5.31,0,0,1,1,.16A0.86,0.86,0,0,1,42,93a1.92,1.92,0,0,1-.66,0c-0.25,0-.66-0.21-0.77.13a4.15,4.15,0,0,0-.05.81,0.83,0.83,0,0,0,.48.17,5.65,5.65,0,0,1,.85.14,1,1,0,0,1,0,.52,0.56,0.56,0,0,1-.53.09c-0.54-.06-1.1-0.14-1.64-0.25-0.14-.07-0.06-0.21-0.06-0.35,0.21-1.24.3-2.56,0.5-3.82a0.14,0.14,0,0,1,.14-0.13,14.22,14.22,0,0,1,1.65.17Z"/><path class="cls-4" d="M50.29,90.94a0.5,0.5,0,0,1-.08.5,8.62,8.62,0,0,0-1.15.17,0.46,0.46,0,0,0-.1.46,0.68,0.68,0,0,0,.19.53,6.81,6.81,0,0,1,1.24,0,1.06,1.06,0,0,1,.07.52,0.48,0.48,0,0,1-.42.17,1.68,1.68,0,0,0-.92.23,1.75,1.75,0,0,0,.12.91,0.77,0.77,0,0,0,.41.05,3.71,3.71,0,0,1,.92,0,0.6,0.6,0,0,1,0,.54,0.21,0.21,0,0,1-.22.13c-0.57.06-1.14,0.13-1.7,0.16a0.25,0.25,0,0,1-.26-0.15c-0.17-1.1-.21-2.27-0.32-3.4a2.42,2.42,0,0,1,0-.74,1.28,1.28,0,0,1,.63-0.12,7.52,7.52,0,0,1,1.5-.1Z"/><path class="cls-4" d="M46.64,92.53a1.41,1.41,0,0,0,0-.8c-0.41-.94-1.48-0.84-2.4-0.91A0.21,0.21,0,0,0,44,91c-0.15,1.33-.25,2.68-0.35,4a0.18,0.18,0,0,0,.16.17,1.53,1.53,0,0,0,.59,0c0.11-.38.09-0.78,0.17-1.16l0.06-.15c0-.06.11,0,0.15,0,0.35,0.46.56,1,.91,1.42a2,2,0,0,0,.78.09c0.07,0,.1-0.09.08-0.15l-0.89-1.48c0-.08-0.07-0.22,0-0.27A1.39,1.39,0,0,0,46.64,92.53ZM45,92.91c-0.11,0-.32,0-0.32-0.17a1.51,1.51,0,0,1,.18-1,0.66,0.66,0,0,1,.83.25,0.79,0.79,0,0,1,0,.62A0.75,0.75,0,0,1,45,92.91Z"/><path class="cls-4" d="M43.41,17.71a0.87,0.87,0,0,0,.79-0.94,0.8,0.8,0,1,0-1.57,0A0.87,0.87,0,0,0,43.41,17.71Z"/><path class="cls-4" d="M49.76,17.73a1.17,1.17,0,0,0,0-2.31A1.17,1.17,0,0,0,49.76,17.73Z"/><path class="cls-4" d="M43.41,14.82A0.88,0.88,0,1,0,42.69,14,0.81,0.81,0,0,0,43.41,14.82Z"/><path class="cls-4" d="M69,38.33c-2.66-5.5-.82-11.19,1-15.36a45.43,45.43,0,0,0,1.65-4.86c-2.71,1.35-5.78-.67-10.26-5.06C58.65,10.45,52.8,7.8,46.64,7.8s-12,2.3-14.78,5.2c-4.33,4.54-7.42,6.46-10.13,5.11A44.67,44.67,0,0,0,23.39,23c1.76,4.18,3.61,9.86.95,15.36,0,0-10.63-2.45-5.37,12,0,0,1.77,3.66,7.22,7.06a5.33,5.33,0,0,1,1.9,2.72l3.56,0.68a9,9,0,0,0,1.75,6.11c2,2.45,4.52,3.75,5.73,5.07,2.18,2.36,3.07,3.58,3.34,5.31l2.16,0.48s0.54,2.8,2,2.8,2-2.8,2-2.8l2.16-.48c0.27-1.73,1.16-3,3.35-5.31,1.21-1.32,3.71-2.62,5.72-5.07a9.05,9.05,0,0,0,1.75-6.11l3.56-.68a5.32,5.32,0,0,1,1.9-2.72c5.45-3.4,7.22-7.06,7.22-7.06C79.58,35.88,69,38.33,69,38.33Zm-14.39-26h2v6.19H55.38V13.4H54.56V12.35Zm-6.21,2.19L50,12.1l0.89,0.64-1.27,1.8v0a1.31,1.31,0,0,1,.49-0.09A1.92,1.92,0,0,1,52,16.52a2.11,2.11,0,0,1-2.19,2.19,2.08,2.08,0,0,1-2.18-2.11A3.89,3.89,0,0,1,48.35,14.54Zm-1.35,7a1.37,1.37,0,0,1,1.42,1.53s0,2.8.08,4.15a15.58,15.58,0,0,0,.28,2s0.18,0.62-.24.54a1.71,1.71,0,0,0-.61-0.21c-0.33.08-.21,0.51-0.61,0.5s-0.33-.41-0.64-0.41S46.4,30.06,46,30s-0.27-.5-0.67-0.51-0.47.37-.78,0.18,0.59-1.51.45-4.07c-0.11-2-1.46-1.18-1.72-2s0.85-1.57,1.23-1.77A4.29,4.29,0,0,1,47,21.54ZM41.59,14a1.82,1.82,0,0,1,3.63,0,1.53,1.53,0,0,1-.82,1.36,1.57,1.57,0,0,1,1,1.57,2,2,0,0,1-4,0,1.58,1.58,0,0,1,1-1.57A1.54,1.54,0,0,1,41.59,14Zm-4.92-1.61h2v6.19h-1.2V13.4H36.67V12.35ZM61,42.43a8.35,8.35,0,0,0-.37,1.21,7.68,7.68,0,0,0-.18.76c-0.19.87-.42,1.74-0.54,2.61-0.12.59-.2,1.18-0.29,1.77A18.13,18.13,0,0,0,59.29,51a4.36,4.36,0,0,0-.09.74c0,0.51-.15,1-0.16,1.54a3.77,3.77,0,0,1-.12.89,5.13,5.13,0,0,1-.15,1.47,2.08,2.08,0,0,1-.08,1,2.55,2.55,0,0,1,0,.88c0.14,0.35-.16.67,0,1,0,0.59-.11,1.1-0.05,1.67a0.48,0.48,0,0,1-.25.53c-0.25.06-.51,0.13-0.79,0.17a0.6,0.6,0,0,1-.36,0,6.93,6.93,0,0,1-1.13.28,4.78,4.78,0,0,1-1,.16,0.79,0.79,0,0,1-.58.13,0.67,0.67,0,0,1-.54.14,5.65,5.65,0,0,1-1.14.4,19.27,19.27,0,0,0-2.22.71,0.57,0.57,0,0,0-.37.22,3.51,3.51,0,0,0,.39.76A3.36,3.36,0,0,1,51,65.27,11.33,11.33,0,0,1,50.77,67c-0.33,1.63-1.22,3-.8,4.72a0.6,0.6,0,0,1-.3.46,0.43,0.43,0,0,1-.32,0A2.23,2.23,0,0,1,49,70.33c0.14-1,.55-1.82.63-2.82a4.13,4.13,0,0,0-.11-2.22,2.8,2.8,0,0,0-1.3-1.51,0.94,0.94,0,0,0-.74.51L47.2,75.57a0.58,0.58,0,1,1-1.16.08L46,64.2a0.72,0.72,0,0,0-.59-0.43,1,1,0,0,0-.47.34A4.59,4.59,0,0,0,44,65.65a1.41,1.41,0,0,1-.07.51,13.45,13.45,0,0,0,.54,3.79A3.12,3.12,0,0,1,44.57,71c0,0.2-.07.4-0.07,0.56a0.67,0.67,0,0,1-.17.39,0.49,0.49,0,0,1-.35.16,0.8,0.8,0,0,1-.33-0.83,3.51,3.51,0,0,0-.09-2c-0.12-.32-0.16-0.7-0.28-1a2.26,2.26,0,0,1-.2-0.63,1.63,1.63,0,0,1-.18-0.51,7.63,7.63,0,0,1-.14-1,3.18,3.18,0,0,1,0-.52c0-.16,0-0.37-0.06-0.51a0.87,0.87,0,0,1,.07-0.38,1.89,1.89,0,0,1,.07-0.45A2.07,2.07,0,0,0,42.85,64a4.82,4.82,0,0,1,.53-1c0-.2-0.18-0.2-0.29-0.29a4.46,4.46,0,0,1-.6-0.28A12.39,12.39,0,0,1,41,61.93a4.06,4.06,0,0,1-1.14-.32,3.33,3.33,0,0,0-.42-0.09c-1.37-.31-2.75-0.58-4.17-0.84A0.3,0.3,0,0,1,35,60.43c0-.59-0.06-1.12-0.05-1.71s0-.88-0.06-1.3l0-1c0-.08.13-0.13,0-0.22s0-.43-0.14-0.59a1.57,1.57,0,0,1,0-.55,1.38,1.38,0,0,0-.1-0.27A3.45,3.45,0,0,0,34.5,54a0.84,0.84,0,0,1,0-.51,10.58,10.58,0,0,1-.21-1.17c0-.48-0.13-0.94-0.12-1.42a1.49,1.49,0,0,1-.09-0.75c0-.1-0.1-0.17-0.1-0.27a8.49,8.49,0,0,0-.19-1,0.49,0.49,0,0,0-.08-0.43c0-.35-0.16-0.65-0.17-1a0.45,0.45,0,0,0-.09-0.41c-0.06-.41-0.16-0.79-0.19-1.21A4,4,0,0,0,33,45.13a1.19,1.19,0,0,0-.15-0.65,2.73,2.73,0,0,0-.14-0.57,4.8,4.8,0,0,1-.13-0.73,1.14,1.14,0,0,1-.2-0.69,0.25,0.25,0,0,1-.1-0.29,1,1,0,0,0,.3-0.38,2.35,2.35,0,0,0,.55-0.58,4.76,4.76,0,0,0,.58-0.57,1.24,1.24,0,0,1,.54-0.53,2.68,2.68,0,0,1,.72.1,4.48,4.48,0,0,1,1.2.33,1.16,1.16,0,0,1,.42.09,2.23,2.23,0,0,1,.72.28,3.88,3.88,0,0,1,1.25.38,5.49,5.49,0,0,0,1.31.35,1.1,1.1,0,0,0,.35-0.5,1.63,1.63,0,0,0,.3-0.45,4,4,0,0,1,1.3-1,3.42,3.42,0,0,1,.86-0.25,1.24,1.24,0,0,1,.72.1,1.79,1.79,0,0,1,.61.28,1.44,1.44,0,0,1,.52.66,0.87,0.87,0,0,1-.5.75,3,3,0,0,0-1.48,1.56,0.51,0.51,0,0,0,.34.29,27.13,27.13,0,0,1,2.65,1.31c0.09,0,.21,0,0.22-0.1,0.13-1.2-.08-2.41,0-3.62,0.2-.43.57-0.79,0.75-1.23a0.17,0.17,0,0,1,.29.12c0.19,0.55.81,0.93,0.76,1.58,0.06,1.06-.06,2.16,0,3.18a0.24,0.24,0,0,0,.1.16c0.77-.3,1.49-0.8,2.24-1.15a5.38,5.38,0,0,0,.77-0.37c0-.08.13-0.16,0.05-0.27a4,4,0,0,0-1.62-1.49,0.68,0.68,0,0,1-.32-0.64,1.58,1.58,0,0,1,.91-0.92,2.34,2.34,0,0,1,1-.13,3.31,3.31,0,0,1,1.93,1.12,10,10,0,0,1,.68,1,0.91,0.91,0,0,0,.77-0.15,1,1,0,0,0,.58-0.22c0.69-.21,1.33-0.44,2-0.65a1.36,1.36,0,0,1,.51-0.13c0.35-.18.77-0.2,1.12-0.37a1.47,1.47,0,0,1,.68,0,1.32,1.32,0,0,1,.59.54,1.65,1.65,0,0,0,.54.6,7.09,7.09,0,0,0,.73.74A0.4,0.4,0,0,1,61,42.43Zm1.22-17.67a4.8,4.8,0,0,1-2.43,1C59,26,53.45,27.34,53.54,28s6.81-1.45,7.35-1.29c0.74,0.2-2.35,2.66-2.9,2.82-1,.3-4.29-0.11-4.36.44s3.22,0.38,3.2.85A4.12,4.12,0,0,1,54.28,33c-1,.08-1.94-0.58-2.17-0.1s0.68,2.34.13,2.8S50,35,49.72,35.37s0.23,2.14-.68,2.53-1.76-1.42-2.37-1.45S45,38.24,44.25,37.91s-0.37-2.2-.67-2.53-2,.78-2.53.31,0.37-2.31.13-2.8S40,33.06,39,33a4.07,4.07,0,0,1-2.55-2.17c0-.47,3.27-0.32,3.2-0.85s-3.39-.14-4.37-0.44c-0.54-.17-3.64-2.62-2.89-2.82,0.54-.16,7.26,2,7.36,1.29s-5.44-2-6.26-2.21a4.83,4.83,0,0,1-2.43-1c-1.94-1.54-3.67-5.42-2.89-4.95s3.74,2,6.45,3.16,6.92,2.36,7.86,3.17a3.18,3.18,0,0,1,1,1.22c0.48,1-.14,3,0.36,3.68s0.8,0,1.23.09,0.16,0.63.78,0.61c0.28,0,.3-0.48.76-0.48s0.29,0.53.76,0.48,0.36-.55.79-0.61S49.1,31.6,49.42,31a2.8,2.8,0,0,0,.18-1.8,5.08,5.08,0,0,1,.13-1.81A3.36,3.36,0,0,1,50.95,26c1-.76,5-1.87,7.72-3.05s5.68-2.69,6.45-3.16S64.17,23.22,62.23,24.76Z"/><path class="cls-4" d="M58.79,42l0,0.1a29.7,29.7,0,0,0-1.19,5.5,7.56,7.56,0,0,0-.15,1.22c0.06,0.24-.08.48,0,0.76s-0.1.75-.11,1.13a0.24,0.24,0,0,1,0,.27c0,0.22-.07.45-0.05,0.67s-0.06.61,0,.92l0,0.81c-0.07.38,0,.81-0.07,1.18,0,0.55,0,1.11,0,1.66a0.43,0.43,0,0,1,0,.33,2.61,2.61,0,0,1,0,.73c0,0.53.06,1,.06,1.53a0.8,0.8,0,0,1-.58.2c-1.2.3-2.33,0.72-3.51,1.13-0.55.19-1.07,0.45-1.65,0.65-0.3.11-.58,0.31-0.9,0.4a10.52,10.52,0,0,1-1.23.61,2.31,2.31,0,0,1-.86-0.5,0.16,0.16,0,0,1-.06-0.22,7.34,7.34,0,0,0,2-2.6A5,5,0,0,0,50.71,55a6,6,0,0,0-2-2.93,0.16,0.16,0,0,1,0-.17c0.8-.62,1.66-1.11,2.44-1.83a7.49,7.49,0,0,0,2.61-3.83c0-.35.14-0.68,0.14-1a3.47,3.47,0,0,0-.09-1.93A0.26,0.26,0,0,1,54,43c0.26-.07.54-0.29,0.78-0.33,0.44-.16.8-0.28,1.24-0.4s0.9-.16,1.33-0.25a7.91,7.91,0,0,1,1.36,0Z"/><path class="cls-4" d="M37.73,42.48c0.32,0,.62.23,0.91,0.3s0.54,0.2.72,0.22a0.31,0.31,0,0,1,.16.23,0.34,0.34,0,0,0,0,.2,2,2,0,0,0-.08.88,0.92,0.92,0,0,0,0,.67,5.39,5.39,0,0,0,.15,1.14,0.76,0.76,0,0,1,.14.52,3.42,3.42,0,0,1,.41.86,6.74,6.74,0,0,0,1.07,1.59,6.56,6.56,0,0,0,.94.81c0.12,0.33.54,0.28,0.65,0.58a6.88,6.88,0,0,1,.58.42c0.26,0,.35.36,0.61,0.38,0.23,0.31.63,0.37,0.84,0.68a4.49,4.49,0,0,1-.41.45,1.68,1.68,0,0,1-.41.42c0,0.26-.41.4-0.44,0.66a0.49,0.49,0,0,0-.17.3,0.82,0.82,0,0,0-.25.61,3.78,3.78,0,0,0-.5,1.61,1.89,1.89,0,0,0,.09.85,4.18,4.18,0,0,0,.58,1.95,8,8,0,0,0,1.28,1.7,2.58,2.58,0,0,1,.67.59,1.28,1.28,0,0,1-.58.55,0.3,0.3,0,0,1-.26.16,3.42,3.42,0,0,1-1.14-.51c-0.84-.4-1.75-0.69-2.62-1.05A38.39,38.39,0,0,0,37,59.13a1.51,1.51,0,0,1-.61-0.26c0-.63,0-1.21,0-1.83a1.47,1.47,0,0,0-.05-0.55,0.94,0.94,0,0,0,0-.68,4.2,4.2,0,0,0,0-1,0.42,0.42,0,0,1,0-.28,10.42,10.42,0,0,1-.09-1.2,3.77,3.77,0,0,1,0-.72,0.9,0.9,0,0,0-.1-0.46,3.51,3.51,0,0,0,0-.94,0.21,0.21,0,0,1,0-.26,1.16,1.16,0,0,1,0-.46A3.41,3.41,0,0,1,36,49.72c0-.51-0.11-1-0.16-1.48a3.84,3.84,0,0,0-.09-0.69c-0.08-.3-0.05-0.61-0.13-0.9a3.52,3.52,0,0,0-.16-0.59,10.45,10.45,0,0,0-.25-1.39c-0.19-.82-0.47-1.6-0.69-2.4a0.36,0.36,0,0,1,.05-0.2,3.34,3.34,0,0,1,1.25,0A9.89,9.89,0,0,1,37.73,42.48Z"/><path class="cls-4" d="M51.29,44.51a4.45,4.45,0,0,1,0,2.1c-0.16.47-.42,0.89-0.54,1.36a6.59,6.59,0,0,0-.67.89c-0.3.11-.5,0.41-0.8,0.5a4.29,4.29,0,0,1-.58.5,5.1,5.1,0,0,1-1.11.75A1.11,1.11,0,0,1,47.52,50c0.09-1.2,0-2.47.07-3.64a0.91,0.91,0,0,1,.16-0.54c0.79-.46,1.61-0.85,2.43-1.22A6.69,6.69,0,0,1,51,44.27C51.21,44.22,51.25,44.41,51.29,44.51Z"/><path class="cls-4" d="M45.54,45.66c0.36,0.09.23,0.46,0.33,0.68,0,0.57,0,1.14,0,1.72a0.52,0.52,0,0,1,0,.31c0,0.36,0,.71,0,1.08a3.07,3.07,0,0,1,0,1.06c-0.06.11-.23,0-0.34,0a12.53,12.53,0,0,1-2.63-2.23,10.59,10.59,0,0,1-.82-1.63,0.54,0.54,0,0,0-.1-0.4A4.82,4.82,0,0,0,42,45.39a4,4,0,0,1,.21-1.06,0.16,0.16,0,0,1,.13-0.1A26.38,26.38,0,0,1,45.54,45.66Z"/><path class="cls-4" d="M46,53.49c0.06,2,.1,4,0.14,6.12a4.76,4.76,0,0,1-.11.56,2.06,2.06,0,0,1-.83-0.72c-0.92-1.34-1.59-3.36-.57-4.85a3.12,3.12,0,0,1,1.22-1.24C46,53.32,46,53.42,46,53.49Z"/><path class="cls-4" d="M48.77,54.33a3.76,3.76,0,0,1,.6,3,5.69,5.69,0,0,1-1.72,2.95s-0.06,0-.1-0.05c-0.12-1.59,0-3.3,0-4.94a10.45,10.45,0,0,1,0-1.79,0.14,0.14,0,0,1,.18-0.07A2.91,2.91,0,0,1,48.77,54.33Z"/></g></g></svg>